<svg width="44" height="44" viewBox="0 0 44 44" fill="none" xmlns="http://www.w3.org/2000/svg">
<g clip-path="url(#clip0_220_317)">
<path d="M22 13C29.2007 13 31 14.7993 31 22C31 29.2007 29.2007 31 22 31C14.7993 31 13 29.2007 13 22C13 14.7993 14.7993 13 22 13ZM20.5233 26.923C22.4163 26.9252 23.9763 25.3705 23.98 23.4767C23.98 21.586 22.4245 20.0305 20.5338 20.0305C18.643 20.0305 17.0875 21.5867 17.0875 23.4767C17.0875 25.3637 18.6363 26.9177 20.5233 26.923ZM26.7812 26.7812V17.2188H17.2188V18.904H25.0922V26.7812H26.7812ZM20.5233 21.7202C20.754 21.7203 20.9825 21.7659 21.1957 21.8543C21.4088 21.9427 21.6025 22.0722 21.7656 22.2355C21.9287 22.3987 22.0581 22.5925 22.1463 22.8057C22.2345 23.019 22.2798 23.2475 22.2798 23.4782C22.2797 23.709 22.2341 23.9375 22.1457 24.1507C22.0573 24.3638 21.9278 24.5575 21.7645 24.7206C21.6013 24.8837 21.4075 25.0131 21.1943 25.1013C20.981 25.1895 20.7525 25.2348 20.5218 25.2347C20.0557 25.2346 19.6088 25.0492 19.2794 24.7195C18.95 24.3898 18.7651 23.9428 18.7652 23.4767C18.7654 23.0107 18.9508 22.5638 19.2805 22.2344C19.6102 21.905 20.0572 21.7201 20.5233 21.7202Z" fill="black"/>
</g>
<defs>
<clipPath id="clip0_220_317">
<rect width="18" height="18" fill="white" transform="translate(13 13)"/>
</clipPath>
</defs>
</svg>
