<svg width="44" height="44" fill="none" xmlns="http://www.w3.org/2000/svg"><path d="M17 20.7a3 3 0 0 1-3-3 3 3 0 0 1 3-3.1 3 3 0 0 1 3.1 3 3 3 0 0 1-3 3Zm-.3-1.4c.2 0 .3-.1.4-.3l1.5-2.2v-.3c0-.2-.1-.4-.3-.4-.2 0-.3 0-.4.2l-1.2 2-.5-.7-.3-.1c-.3 0-.4.1-.4.4v.2l.8 1 .4.2Zm5.7-1a.7.7 0 0 1-.7-.7c0-.3.3-.6.7-.6h6.9c.4 0 .7.3.7.6 0 .4-.3.7-.7.7h-6.9Zm-5.3 10.3a3 3 0 0 1-3-3 3 3 0 0 1 3-3.1 3 3 0 0 1 3 3 3 3 0 0 1-3 3Zm0-1.3c1 0 1.8-.8 1.8-1.8s-.9-1.8-1.8-1.8c-1 0-1.8.8-1.8 1.8s.8 1.8 1.8 1.8Zm5.3-1.1a.7.7 0 0 1-.7-.7c0-.3.3-.6.7-.6h6.9c.4 0 .7.3.7.6 0 .4-.3.7-.7.7h-6.9Z" fill="#8C69A6"/></svg>