<svg width="44" height="44" fill="none" xmlns="http://www.w3.org/2000/svg"><path d="M13.9 18.8v-1.4c0-1.5.8-2.3 2.3-2.3h1.3v1.5h-1.2c-.6 0-.9.4-.9 1v1.2h-1.5Zm16.2 0h-1.5v-1.2c0-.6-.3-1-1-1h-1.1v-1.5h1.3c1.5 0 2.3.8 2.3 2.3v1.4Zm-11.6-2.2v-1.5h3v1.5h-3Zm4 0v-1.5h3v1.5h-3ZM14 23.3v-3.5h1.5v3.5H14Zm16.2 0h-1.5v-3.5h1.5v3.5Zm-14 4.7c-1.4 0-2.2-.8-2.2-2.3v-1.3h1.5v1.2c0 .6.3.9 1 .9h1.1V28h-1.3Zm11.7 0h-1.3v-1.5h1.2c.6 0 .9-.3.9-1v-1.1h1.5v1.3c0 1.5-.8 2.3-2.3 2.3Zm-9.3 0v-1.5h3V28h-3Zm4 0v-1.5h3V28h-3Z" fill="#8C69A6"/></svg>