<svg width="44" height="44" fill="none" xmlns="http://www.w3.org/2000/svg"><path d="M16.8 20.7c-1.1 0-2-.8-2-2.1a3 3 0 0 1 3-3.1c.3 0 .6.2.6.5s-.2.5-.5.5a2 2 0 0 0-1.9 1.6c.3-.3.6-.5 1-.5.8 0 1.5.6 1.5 1.5 0 1-.8 1.6-1.7 1.6Zm4.3 0c-1.1 0-2-.8-2-2.1a3 3 0 0 1 3-3.1c.4 0 .7.2.7.5s-.3.5-.5.5a2 2 0 0 0-2 1.6c.3-.3.6-.5 1-.5.9 0 1.5.6 1.5 1.5 0 1-.8 1.6-1.7 1.6Zm3.6-3.9a.7.7 0 0 1-.7-.6c0-.4.3-.7.7-.7h3.8a.7.7 0 1 1 0 1.3h-3.8Zm0 3.6a.7.7 0 0 1-.7-.6c0-.4.3-.7.7-.7h3.8c.4 0 .7.3.7.7 0 .3-.3.6-.7.6h-3.8ZM15.5 24a.7.7 0 0 1-.7-.7c0-.3.3-.6.7-.6h13a.7.7 0 1 1 0 1.3h-13Zm0 3.6a.7.7 0 0 1-.7-.7c0-.4.3-.7.7-.7h13a.7.7 0 1 1 0 1.4h-13Z" fill="#8C69A6"/></svg>