<svg width="44" height="44" viewBox="0 0 44 44" fill="none" xmlns="http://www.w3.org/2000/svg">
<path d="M14.8359 21.8242C14.8359 17.2168 17.6865 14.1611 21.9932 14.1611C26.2998 14.1611 29.1572 17.2168 29.1572 21.8242C29.1572 23.9092 28.5488 26.2197 27.5303 27.9971C27.3115 28.3799 26.8809 28.4893 26.498 28.2773C26.1494 28.7764 25.5615 28.9609 24.8984 28.7627C24.0645 28.4961 23.6816 27.7646 23.9482 26.9238L24.9326 23.752C25.1924 22.918 25.917 22.5488 26.7646 22.8018C27.0928 22.9043 27.3594 23.082 27.5303 23.3213C27.6055 22.8154 27.6465 22.3164 27.6465 21.8242C27.6465 18.1328 25.3838 15.6787 21.9932 15.6787C18.6094 15.6787 16.3535 18.1328 16.3535 21.8242C16.3535 22.3164 16.3877 22.8154 16.4629 23.3145C16.6338 23.082 16.8936 22.9043 17.2285 22.8018C18.0693 22.5488 18.7939 22.918 19.0537 23.752L20.0449 26.9238C20.3047 27.7578 19.9287 28.4961 19.0947 28.7627C18.4316 28.9609 17.8438 28.7764 17.4883 28.2773C17.0986 28.4893 16.6748 28.3799 16.4629 27.9971C15.4443 26.2197 14.8359 23.9092 14.8359 21.8242Z" fill="#91918E"/>
</svg>
