<svg width="44" height="44" viewBox="0 0 44 44" fill="none" xmlns="http://www.w3.org/2000/svg">
<path d="M13.5377 28.8516C13.0796 28.8516 12.7994 28.5713 12.7994 28.1816C12.7994 28.0654 12.8199 27.9492 12.8404 27.874L15.9576 17.1416C16.0875 16.7041 16.3199 16.499 16.73 16.499C17.1675 16.499 17.4615 16.7793 17.4615 17.1963C17.4615 17.292 17.4546 17.374 17.4273 17.4766L14.2964 28.25C14.1734 28.6533 13.9341 28.8516 13.5377 28.8516ZM19.5533 26.5752C18.9996 26.5752 18.5689 26.1445 18.5689 25.5908C18.5689 25.0439 18.9996 24.6064 19.5533 24.6064C20.1002 24.6064 20.5308 25.0439 20.5308 25.5908C20.5308 26.1445 20.1002 26.5752 19.5533 26.5752ZM23.3267 26.5752C22.773 26.5752 22.3423 26.1445 22.3423 25.5908C22.3423 25.0439 22.773 24.6064 23.3267 24.6064C23.8736 24.6064 24.3043 25.0439 24.3043 25.5908C24.3043 26.1445 23.8736 26.5752 23.3267 26.5752ZM27.2495 28.8516C26.7914 28.8516 26.5112 28.5713 26.5112 28.1816C26.5112 28.0654 26.5317 27.9492 26.5522 27.874L29.6694 17.1416C29.7993 16.7041 30.0317 16.499 30.4418 16.499C30.8793 16.499 31.1733 16.7793 31.1733 17.1963C31.1733 17.292 31.1664 17.374 31.1391 17.4766L28.0082 28.25C27.8852 28.6533 27.6459 28.8516 27.2495 28.8516Z" fill="#91918E"/>
</svg>
