<svg width="44" height="44" fill="none" xmlns="http://www.w3.org/2000/svg"><path d="m18.1 17.6-.5-.2a.7.7 0 0 1-.2-.5c0-.2 0-.4.2-.5.2-.2.3-.3.5-.3h12c.2 0 .4.1.5.3.2 0 .3.3.3.5s-.1.3-.3.5l-.5.2h-12Zm0 5.3c-.2 0-.3 0-.5-.2a.7.7 0 0 1-.2-.5c0-.2 0-.4.2-.5.2-.2.3-.2.5-.2h12c.2 0 .4 0 .5.2.2.1.3.3.3.5s-.1.3-.3.5l-.5.2h-12Zm0 5.3c-.2 0-.3 0-.5-.2a.7.7 0 0 1-.2-.5c0-.2 0-.4.2-.5.2-.2.3-.2.5-.2h12c.2 0 .4 0 .5.2.2.1.3.3.3.5s-.1.3-.3.5l-.5.2h-12ZM14.2 18a1 1 0 0 1-.7-.4 1 1 0 0 1-.4-.7c0-.4.1-.6.4-.8.2-.2.4-.4.7-.4.4 0 .6.2.8.4.2.2.4.4.4.8 0 .3-.2.5-.4.7a1 1 0 0 1-.8.4Zm0 5.3a1 1 0 0 1-.7-.4 1 1 0 0 1-.4-.7c0-.3.1-.6.4-.8.2-.2.4-.3.7-.3.4 0 .6 0 .8.3.2.2.4.5.4.8 0 .3-.2.5-.4.7a1 1 0 0 1-.8.4Zm0 5.3a1 1 0 0 1-.7-.3 1 1 0 0 1-.4-.8c0-.3.1-.6.4-.8.2-.2.4-.3.7-.3.4 0 .6 0 .8.3.2.2.4.5.4.8 0 .3-.2.5-.4.8a1 1 0 0 1-.8.3Z" fill="#91918E"/></svg>