<svg width="44" height="44" viewBox="0 0 44 44" fill="none" xmlns="http://www.w3.org/2000/svg">
<path d="M15.998 24.9072C14.5352 24.9072 13.7695 24.1553 13.7695 22.6992V15.6514C13.7695 14.1953 14.5352 13.4365 15.998 13.4365H25.1172C26.5869 13.4365 27.3457 14.2021 27.3457 15.6514V18.7139C28.3984 18.5908 29.2803 19.2402 29.752 20.5527L30.3193 22.1318C31.4473 25.249 30.2988 27.7783 27.4072 28.8242C25.0557 29.6855 22.9229 29.0293 21.1592 26.8965L19.5049 24.9072H15.998ZM16.1279 23.5605H18.5205C18.5068 23.5332 18.5 23.5127 18.4932 23.4854C18.2061 22.6992 18.623 22.0156 19.3477 21.749C19.8057 21.585 20.2773 21.7012 20.6875 22.0498L21.2686 22.665C21.2891 22.6924 21.3027 22.6992 21.3301 22.6924C21.3574 22.6719 21.3643 22.6514 21.3506 22.6104L19.6006 17.8115C19.2725 16.9092 19.6621 16.0889 20.5303 15.7676C21.3848 15.4668 22.1914 15.8496 22.5195 16.752L23.1621 18.5156C23.2578 18.4473 23.3672 18.3926 23.4766 18.3516C24.0371 18.1465 24.5771 18.2969 24.9668 18.7412C25.1035 18.6318 25.2607 18.5498 25.4316 18.4883C25.623 18.4131 25.8145 18.3857 25.999 18.3926V15.8086C25.999 15.1455 25.6436 14.79 24.9873 14.79H16.1279C15.4717 14.79 15.123 15.1455 15.123 15.8086V22.542C15.123 23.2051 15.4717 23.5605 16.1279 23.5605ZM27.0107 27.6211C29.2393 26.8076 30.0596 24.9072 29.1572 22.4258L28.6309 20.9697C28.3301 20.1562 27.9062 19.7939 27.4346 19.9717L27.6465 20.5527C27.749 20.8262 27.5986 21.1201 27.332 21.2158C27.0654 21.3115 26.7646 21.1953 26.6553 20.915L26.293 19.917C26.1973 19.6572 25.9785 19.5479 25.7324 19.6367C25.623 19.6777 25.5137 19.7461 25.4385 19.8145L25.8418 20.9355C25.9375 21.209 25.7939 21.4893 25.5342 21.585C25.2676 21.6738 24.9668 21.5576 24.8643 21.2842L24.3242 19.7939C24.2285 19.5273 24.0098 19.418 23.7568 19.5137C23.6543 19.5479 23.5449 19.6162 23.4629 19.6846L24.0508 21.291C24.1533 21.5645 24.0029 21.8584 23.7363 21.9541C23.4697 22.0498 23.1621 21.9199 23.0664 21.6533L21.3984 17.0801C21.3164 16.8613 21.1182 16.7588 20.8994 16.834C20.6875 16.916 20.5918 17.1279 20.6738 17.3398L23.0596 23.9023C23.1963 24.2715 23.0322 24.5928 22.7246 24.709C22.4717 24.7979 22.2051 24.7637 21.9385 24.4971L20.3252 22.9043C20.1885 22.7607 20.0518 22.6992 19.8809 22.7607C19.6689 22.8428 19.5938 23.0342 19.6621 23.2119C19.6963 23.3008 19.7305 23.3623 19.7852 23.4307L22.0889 26.1104C23.6133 27.8877 25.2266 28.2773 27.0107 27.6211Z" fill="#91918E"/>
</svg>
