<svg width="44" height="44" viewBox="0 0 44 44" fill="none" xmlns="http://www.w3.org/2000/svg">
<path d="M17.2695 28.0176C15.7588 28.0176 14.9521 27.2246 14.9521 25.7275V17.4219C14.9521 15.9248 15.7588 15.125 17.2695 15.125H26.7236C28.2412 15.125 29.041 15.9248 29.041 17.4219V25.7275C29.041 27.2246 28.2412 28.0176 26.7236 28.0176H17.2695ZM17.3174 26.5H26.6689C27.2158 26.5 27.5166 26.2266 27.5166 25.6455V19.4385C27.5166 18.8643 27.2158 18.5908 26.6689 18.5908H17.3174C16.7705 18.5908 16.4766 18.8643 16.4766 19.4385V25.6455C16.4766 26.2266 16.7705 26.5 17.3174 26.5ZM20.6943 20.8945C20.4482 20.8945 20.3662 20.8193 20.3662 20.5732V20.1699C20.3662 19.9238 20.4482 19.8486 20.6943 19.8486H21.0977C21.3438 19.8486 21.4258 19.9238 21.4258 20.1699V20.5732C21.4258 20.8193 21.3438 20.8945 21.0977 20.8945H20.6943ZM22.9023 20.8945C22.6562 20.8945 22.5742 20.8193 22.5742 20.5732V20.1699C22.5742 19.9238 22.6562 19.8486 22.9023 19.8486H23.3057C23.5518 19.8486 23.6338 19.9238 23.6338 20.1699V20.5732C23.6338 20.8193 23.5518 20.8945 23.3057 20.8945H22.9023ZM25.1104 20.8945C24.8643 20.8945 24.7822 20.8193 24.7822 20.5732V20.1699C24.7822 19.9238 24.8643 19.8486 25.1104 19.8486H25.5137C25.7598 19.8486 25.8486 19.9238 25.8486 20.1699V20.5732C25.8486 20.8193 25.7598 20.8945 25.5137 20.8945H25.1104ZM18.4863 23.0684C18.2402 23.0684 18.1514 22.9932 18.1514 22.7471V22.3438C18.1514 22.0977 18.2402 22.0225 18.4863 22.0225H18.8896C19.1357 22.0225 19.2178 22.0977 19.2178 22.3438V22.7471C19.2178 22.9932 19.1357 23.0684 18.8896 23.0684H18.4863ZM20.6943 23.0684C20.4482 23.0684 20.3662 22.9932 20.3662 22.7471V22.3438C20.3662 22.0977 20.4482 22.0225 20.6943 22.0225H21.0977C21.3438 22.0225 21.4258 22.0977 21.4258 22.3438V22.7471C21.4258 22.9932 21.3438 23.0684 21.0977 23.0684H20.6943ZM22.9023 23.0684C22.6562 23.0684 22.5742 22.9932 22.5742 22.7471V22.3438C22.5742 22.0977 22.6562 22.0225 22.9023 22.0225H23.3057C23.5518 22.0225 23.6338 22.0977 23.6338 22.3438V22.7471C23.6338 22.9932 23.5518 23.0684 23.3057 23.0684H22.9023ZM25.1104 23.0684C24.8643 23.0684 24.7822 22.9932 24.7822 22.7471V22.3438C24.7822 22.0977 24.8643 22.0225 25.1104 22.0225H25.5137C25.7598 22.0225 25.8486 22.0977 25.8486 22.3438V22.7471C25.8486 22.9932 25.7598 23.0684 25.5137 23.0684H25.1104ZM18.4863 25.2422C18.2402 25.2422 18.1514 25.167 18.1514 24.9209V24.5176C18.1514 24.2715 18.2402 24.1963 18.4863 24.1963H18.8896C19.1357 24.1963 19.2178 24.2715 19.2178 24.5176V24.9209C19.2178 25.167 19.1357 25.2422 18.8896 25.2422H18.4863ZM20.6943 25.2422C20.4482 25.2422 20.3662 25.167 20.3662 24.9209V24.5176C20.3662 24.2715 20.4482 24.1963 20.6943 24.1963H21.0977C21.3438 24.1963 21.4258 24.2715 21.4258 24.5176V24.9209C21.4258 25.167 21.3438 25.2422 21.0977 25.2422H20.6943ZM22.9023 25.2422C22.6562 25.2422 22.5742 25.167 22.5742 24.9209V24.5176C22.5742 24.2715 22.6562 24.1963 22.9023 24.1963H23.3057C23.5518 24.1963 23.6338 24.2715 23.6338 24.5176V24.9209C23.6338 25.167 23.5518 25.2422 23.3057 25.2422H22.9023Z" fill="#91918E"/>
</svg>
