<svg width="44" height="44" viewBox="0 0 44 44" fill="none" xmlns="http://www.w3.org/2000/svg">
<path d="M17.2832 17.5381C17.2832 15.0703 19.3818 13.1904 21.9932 13.1904C24.6045 13.1904 26.71 15.0771 26.71 17.5381C26.71 20.1221 25.0283 20.9219 24.7891 25.2969C24.7754 25.6797 24.5225 25.9121 24.1328 25.9121H19.8535C19.4639 25.9121 19.2109 25.6797 19.1973 25.2969C18.9648 20.9219 17.2832 20.1152 17.2832 17.5381ZM19.7783 27.5801C19.5117 27.5801 19.3066 27.3613 19.3066 27.1084C19.3066 26.8555 19.5117 26.6436 19.7783 26.6436H24.208C24.4746 26.6436 24.6797 26.8555 24.6797 27.1084C24.6797 27.3613 24.4746 27.5801 24.208 27.5801H19.7783ZM21.9932 29.6445C20.8926 29.6445 20.0039 29.1113 19.9424 28.3115H24.0303C23.9619 29.1113 23.0938 29.6445 21.9932 29.6445Z" fill="#91918E"/>
</svg>
