<svg width="44" height="44" viewBox="0 0 44 44" fill="none" xmlns="http://www.w3.org/2000/svg">
<path fill-rule="evenodd" clip-rule="evenodd" d="M26.48 22L22.56 24.613V29.84L30.4 24.613V19.387L22.56 14.16V19.387L26.48 22Z" stroke="black" stroke-width="2" stroke-linecap="round" stroke-linejoin="round"/>
<path d="M15.1859 18.6881C14.7999 18.4308 14.2784 18.5351 14.021 18.9211C13.7637 19.3072 13.8681 19.8287 14.2541 20.086L15.1859 18.6881ZM22.0941 25.312C22.4802 25.5692 23.0016 25.4648 23.259 25.0789C23.5163 24.6928 23.4119 24.1713 23.0259 23.914L22.0941 25.312ZM15.56 19.387C15.56 18.9231 15.1839 18.547 14.72 18.547C14.2561 18.547 13.88 18.9231 13.88 19.387H15.56ZM13.88 24.613C13.88 25.0769 14.2561 25.453 14.72 25.453C15.1839 25.453 15.56 25.0769 15.56 24.613H13.88ZM14.254 18.6881C13.868 18.9455 13.7638 19.467 14.0211 19.853C14.2784 20.239 14.8 20.3433 15.186 20.0859L14.254 18.6881ZM23.0259 14.8589C23.412 14.6016 23.5163 14.08 23.2589 13.694C23.0015 13.308 22.48 13.2037 22.0941 13.4611L23.0259 14.8589ZM23.0259 20.086C23.4119 19.8287 23.5163 19.3072 23.259 18.9211C23.0016 18.5351 22.4802 18.4308 22.0941 18.6881L23.0259 20.086ZM14.2541 23.914C13.8681 24.1713 13.7637 24.6928 14.021 25.0789C14.2784 25.4648 14.7999 25.5692 15.1859 25.312L14.2541 23.914ZM15.186 23.9141C14.8 23.6567 14.2784 23.761 14.0211 24.147C13.7638 24.533 13.868 25.0545 14.254 25.3118L15.186 23.9141ZM22.0941 30.5389C22.48 30.7963 23.0015 30.692 23.2589 30.3059C23.5163 29.92 23.412 29.3985 23.0259 29.1411L22.0941 30.5389ZM30.8659 20.086C31.2519 19.8287 31.3563 19.3072 31.099 18.9211C30.8416 18.5351 30.3202 18.4308 29.9341 18.6881L30.8659 20.086ZM26.48 22L26.0141 21.301C25.7803 21.4568 25.64 21.7191 25.64 22C25.64 22.2809 25.7803 22.5432 26.0141 22.699L26.48 22ZM29.9341 25.312C30.3202 25.5692 30.8416 25.4648 31.099 25.0789C31.3563 24.6928 31.2519 24.1713 30.8659 23.914L29.9341 25.312ZM14.2541 20.086L22.0941 25.312L23.0259 23.914L15.1859 18.6881L14.2541 20.086ZM13.88 19.387V24.613H15.56V19.387H13.88ZM15.186 20.0859L23.0259 14.8589L22.0941 13.4611L14.254 18.6881L15.186 20.0859ZM22.0941 18.6881L14.2541 23.914L15.1859 25.312L23.0259 20.086L22.0941 18.6881ZM14.254 25.3118L22.0941 30.5389L23.0259 29.1411L15.186 23.9141L14.254 25.3118ZM29.9341 18.6881L26.0141 21.301L26.9459 22.699L30.8659 20.086L29.9341 18.6881ZM26.0141 22.699L29.9341 25.312L30.8659 23.914L26.9459 21.301L26.0141 22.699Z" fill="black"/>
</svg>
