<svg width="44" height="44" fill="none" xmlns="http://www.w3.org/2000/svg"><path d="M17 26.6c-.5 0-1 0-1.5-.3a2.4 2.4 0 0 1-1.5-2h1l.4.8c.1.2.4.3.7.5l1 .1c.3 0 .7 0 1-.2l.6-.5.2-.8c0-.5-.2-1-.5-1.2-.3-.3-.8-.4-1.4-.4h-1v-1h1l.8-.1c.3-.1.5-.3.6-.5.2-.2.3-.5.3-.8l-.2-.7c-.2-.3-.3-.4-.6-.5a2 2 0 0 0-.9-.2c-.3 0-.6 0-.8.2l-.7.5-.2.7h-1c0-.5.1-.9.4-1.2a2 2 0 0 1 1-.8 3.3 3.3 0 0 1 2.8 0c.4.2.7.4.9.8.2.3.3.7.3 1v.1a1.8 1.8 0 0 1-.8 1.6l-1 .4c.6 0 1.1.3 1.5.6.4.4.6.9.6 1.5 0 .5-.1.9-.4 1.2-.2.4-.6.7-1 1l-1.5.2Z" fill="#91918E"/><path d="M24 18h7m-7 3h7m-7 3h7m-7 3h5" stroke="#91918E" stroke-width="1.4" stroke-linecap="round"/></svg>