<svg width="44" height="44" fill="none" xmlns="http://www.w3.org/2000/svg"><path d="M17 26.7a3 3 0 0 1-1.4-.3c-.4-.2-.7-.5-1-.9-.2-.3-.4-.7-.4-1.2h1a1.6 1.6 0 0 0 1 1.3l.8.2c.4 0 .7-.1 1-.3.3-.1.5-.4.7-.7l.2-1c0-.4 0-.7-.2-1l-.7-.7-1-.2-.7.1a1.8 1.8 0 0 0-1 .9h-1l.5-4.9h4.7v1h-3.9l-.3 2.8h.1l.5-.4.6-.3.7-.1c.6 0 1 0 1.4.3.4.3.8.6 1 1 .2.5.4 1 .4 1.5 0 .6-.2 1-.4 1.5-.3.4-.6.8-1 1a3 3 0 0 1-1.6.4Z" fill="#91918E"/><path d="M24 18h7m-7 3h7m-7 3h7m-7 3h5" stroke="#91918E" stroke-width="1.4" stroke-linecap="round"/></svg>