<svg width="44" height="44" viewBox="0 0 44 44" fill="none" xmlns="http://www.w3.org/2000/svg">
<path d="M16.0527 26.7051V16.4307C16.0527 14.9199 16.8457 14.1201 18.3496 14.1201H25.6504C27.1475 14.1201 27.9473 14.9199 27.9473 16.4307V26.7051C27.9473 28.2158 27.1475 29.0225 25.6504 29.0225H18.3496C16.8457 29.0225 16.0527 28.2158 16.0527 26.7051ZM17.5771 26.5752C17.5771 27.1768 17.8779 27.498 18.5068 27.498H25.4932C26.1221 27.498 26.4229 27.1768 26.4229 26.5752V16.5605C26.4229 15.9658 26.1221 15.6377 25.4932 15.6377H18.5068C17.8779 15.6377 17.5771 15.9658 17.5771 16.5605V26.5752ZM19.1426 18.1396C18.7939 18.1396 18.5 17.8457 18.5 17.5039C18.5 17.1553 18.7939 16.8613 19.1426 16.8613C19.498 16.8613 19.7852 17.1484 19.7852 17.5039C19.7852 17.8525 19.498 18.1396 19.1426 18.1396ZM20.9814 17.9619C20.7354 17.9619 20.5234 17.7568 20.5234 17.5039C20.5234 17.251 20.7285 17.0391 20.9814 17.0391H25.0352C25.2881 17.0391 25.4932 17.251 25.4932 17.5039C25.4932 17.7568 25.2881 17.9619 25.0352 17.9619H20.9814ZM19.1426 20.1357C18.7871 20.1357 18.5 19.8555 18.5 19.5C18.5 19.1514 18.7871 18.8643 19.1426 18.8643C19.498 18.8643 19.7852 19.1445 19.7852 19.5C19.7852 19.8555 19.498 20.1357 19.1426 20.1357ZM20.9814 19.958C20.7285 19.958 20.5234 19.7529 20.5234 19.5C20.5234 19.2471 20.7285 19.0488 20.9814 19.0488H25.0352C25.2949 19.0488 25.4932 19.2471 25.4932 19.5C25.4932 19.7529 25.2949 19.958 25.0352 19.958H20.9814ZM19.1426 22.2344C18.7939 22.2344 18.5 21.9404 18.5 21.5986C18.5 21.25 18.7939 20.9629 19.1426 20.9629C19.498 20.9629 19.7852 21.2432 19.7852 21.5986C19.7852 21.9541 19.498 22.2344 19.1426 22.2344ZM20.9814 22.0566C20.7354 22.0566 20.5234 21.8447 20.5234 21.5986C20.5234 21.3457 20.7285 21.1406 20.9814 21.1406H25.0352C25.2949 21.1406 25.4932 21.3457 25.4932 21.5986C25.4932 21.8447 25.2881 22.0566 25.0352 22.0566H20.9814Z" fill="#91918E"/>
</svg>
