<svg width="44" height="44" viewBox="0 0 44 44" fill="none" xmlns="http://www.w3.org/2000/svg">
<path d="M16.1895 28.0176C14.6787 28.0176 13.8721 27.2246 13.8721 25.7207V17.4219C13.8721 15.918 14.6787 15.125 16.1895 15.125H27.8037C29.3145 15.125 30.1211 15.9248 30.1211 17.4219V25.7207C30.1211 27.2178 29.3145 28.0176 27.8037 28.0176H16.1895ZM16.3193 26.4932H27.6738C28.2686 26.4932 28.5967 26.1924 28.5967 25.5635V17.5791C28.5967 16.9502 28.2686 16.6494 27.6738 16.6494H16.3193C15.7178 16.6494 15.3965 16.9502 15.3965 17.5791V25.5635C15.3965 26.1924 15.7178 26.4932 16.3193 26.4932ZM17.5977 19.2812C17.3105 19.2812 17.0645 19.0352 17.0645 18.7412C17.0645 18.4473 17.3037 18.208 17.5977 18.208H18.3496C18.6367 18.208 18.8896 18.4473 18.8896 18.7412C18.8896 19.042 18.6367 19.2812 18.3496 19.2812H17.5977ZM20.209 19.2061C19.9492 19.2061 19.751 19.001 19.751 18.7412C19.751 18.4883 19.9492 18.29 20.209 18.29H26.4502C26.71 18.29 26.915 18.4883 26.915 18.7412C26.915 19.001 26.71 19.2061 26.4502 19.2061H20.209ZM17.5977 21.4961C17.3037 21.4961 17.0645 21.2568 17.0645 20.9629C17.0645 20.6689 17.3037 20.4229 17.5977 20.4229H18.3496C18.6436 20.4229 18.8896 20.6689 18.8896 20.9629C18.8896 21.2568 18.6367 21.4961 18.3496 21.4961H17.5977ZM20.209 21.4209C19.9492 21.4209 19.751 21.2158 19.751 20.9629C19.751 20.7031 19.9561 20.498 20.209 20.498H26.4502C26.71 20.498 26.915 20.7031 26.915 20.9629C26.915 21.2227 26.71 21.4209 26.4502 21.4209H20.209Z" fill="#91918E"/>
</svg>
