<svg width="44" height="44" viewBox="0 0 44 44" fill="none" xmlns="http://www.w3.org/2000/svg">
<g clip-path="url(#clip0_220_443)">
<path d="M20.5167 21.5884L20.6092 21.6034C20.5775 21.5984 20.5467 21.5942 20.5167 21.5884ZM24.2458 28.3159C24.7758 25.9692 22.4358 24.3159 18.45 24.3042L12.5942 32.0001H20.5825C20.6925 31.9792 20.7958 31.9534 20.9025 31.9292C22.7842 31.0484 23.9008 29.8451 24.2458 28.3159ZM20.5825 32.0001H20.7517L20.7692 31.9917C20.7067 31.9942 20.6458 31.9984 20.5825 32.0001ZM32 21.4326C32 14.6251 27.5925 11.5026 18.7783 12.0642L12 21.4326H18.3067C21.0758 21.4326 25.3542 22.0317 25.3542 26.5601C25.3542 29.5784 23.7642 31.3917 20.5825 32.0001C20.665 31.9976 20.7433 31.9926 20.8242 31.9892L20.815 31.9901L20.7517 32.0001H21.5117L21.7175 31.9359C28.5708 31.3917 32 27.8917 32 21.4326Z" fill="black"/>
</g>
<defs>
<clipPath id="clip0_220_443">
<rect width="20" height="20" fill="white" transform="translate(12 12)"/>
</clipPath>
</defs>
</svg>
