<svg width="44" height="44" viewBox="0 0 44 44" fill="none" xmlns="http://www.w3.org/2000/svg">
<path d="M25.6504 18.2217L24.2354 16.8135L25.0146 16.0479C25.3975 15.6719 25.8281 15.6377 26.1836 15.9932L26.4707 16.2871C26.8262 16.6426 26.8057 17.0664 26.4229 17.4492L25.6504 18.2217ZM17.0986 26.7529L15.3896 27.4092C15.1709 27.4912 14.9316 27.252 15.0205 27.0195L15.6973 25.3516L23.5518 17.4971L24.9531 18.9053L17.0986 26.7529ZM17.9258 27.4023L19.457 25.8779H28.2412C28.6582 25.8779 29 26.2197 29 26.6367C29 27.0537 28.6582 27.4023 28.2412 27.4023H17.9258Z" fill="#91918E"/>
</svg>
