<svg width="44" height="44" viewBox="0 0 44 44" fill="none" xmlns="http://www.w3.org/2000/svg">
<g clip-path="url(#clip0_220_284)">
<path d="M14.4 27.7128L15.1897 29.0769C15.3538 29.3641 15.5897 29.5897 15.8667 29.7538L18.6872 24.8718H13.0461C13.0461 25.1897 13.1282 25.5077 13.2923 25.7949L14.4 27.7128Z" fill="#0066DA"/>
<path d="M22 19.1282L19.1795 14.2462C18.9026 14.4103 18.6667 14.6359 18.5026 14.9231L13.2923 23.9487C13.1312 24.2297 13.0464 24.5479 13.0461 24.8718H18.6872L22 19.1282Z" fill="#00AC47"/>
<path d="M28.1333 29.7538C28.4103 29.5897 28.6462 29.3641 28.8103 29.0769L29.1385 28.5128L30.7077 25.7949C30.8718 25.5077 30.9538 25.1897 30.9538 24.8718H25.3124L26.5128 27.2308L28.1333 29.7538Z" fill="#EA4335"/>
<path d="M22 19.1282L24.8205 14.2462C24.5436 14.0821 24.2256 14 23.8974 14H20.1026C19.7743 14 19.4564 14.0923 19.1795 14.2462L22 19.1282Z" fill="#00832D"/>
<path d="M25.3128 24.8718H18.6872L15.8667 29.7538C16.1436 29.918 16.4615 30 16.7897 30H27.2103C27.5385 30 27.8564 29.9077 28.1333 29.7538L25.3128 24.8718Z" fill="#2684FC"/>
<path d="M28.1026 19.4359L25.4974 14.9231C25.3333 14.6359 25.0974 14.4103 24.8205 14.2462L22 19.1282L25.3128 24.8718H30.9436C30.9436 24.5538 30.8615 24.2359 30.6974 23.9487L28.1026 19.4359Z" fill="#FFBA00"/>
</g>
<defs>
<clipPath id="clip0_220_284">
<rect width="17.9077" height="16" fill="white" transform="translate(13.0461 14)"/>
</clipPath>
</defs>
</svg>
