<svg width="44" height="44" viewBox="0 0 44 44" fill="none" xmlns="http://www.w3.org/2000/svg">
<g clip-path="url(#clip0_220_399)">
<path d="M30.0437 19.1743C29.943 18.93 29.8293 18.6906 29.7027 18.4562C29.6312 18.3232 29.5557 18.192 29.476 18.0625C29.132 17.5053 28.7128 16.9791 28.2183 16.484C26.5981 14.8639 24.6423 14.0538 22.3507 14.0538C20.0597 14.0538 18.1041 14.8639 16.484 16.484C14.8639 18.1041 14.0538 20.0597 14.0538 22.3507C14.0538 24.6423 14.8639 26.5981 16.484 28.2183C18.1041 29.8378 20.0597 30.6476 22.3507 30.6476C24.6423 30.6476 26.5981 29.8378 28.2183 28.2183C29.1106 27.3253 29.7572 26.3307 30.158 25.2344C30.4844 24.3408 30.6476 23.3796 30.6476 22.3507C30.6476 21.5614 30.5515 20.8117 30.3593 20.1016C30.3376 20.0213 30.3147 19.9416 30.2907 19.8625C30.2186 19.6287 30.1363 19.3993 30.0437 19.1743Z" fill="black" fill-opacity="0.098039"/>
<path d="M29.9251 19.4661C29.8961 19.373 29.8654 19.2804 29.8328 19.1884C29.7186 18.8655 29.5829 18.5512 29.4259 18.2453C29.3579 18.1123 29.2858 17.9811 29.2097 17.8516C28.8505 17.2422 28.4031 16.6694 27.8676 16.1333C26.5902 14.856 25.104 14.0822 23.4089 13.8121C23.1218 13.7664 22.8285 13.7351 22.5291 13.7181C22.3545 13.7081 22.1781 13.7031 22 13.7031C21.8348 13.7031 21.6713 13.7075 21.5096 13.7163C19.4289 13.8241 17.6368 14.6298 16.1333 16.1333C14.5132 17.7534 13.7031 19.709 13.7031 22C13.7031 24.2916 14.5132 26.2475 16.1333 27.8676C17.1269 28.8608 18.2467 29.5496 19.4925 29.9339C20.1316 30.1309 20.804 30.2478 21.5096 30.2846C21.5119 30.2846 21.5143 30.2846 21.5166 30.2846C21.659 30.2916 21.8025 30.2957 21.9473 30.2969C21.9648 30.2969 21.9824 30.2969 22 30.2969C22.1787 30.2969 22.3551 30.2922 22.5291 30.2828C22.5701 30.2805 22.6108 30.2778 22.6513 30.2749C23.0034 30.2497 23.3474 30.2046 23.6831 30.1396C23.8214 30.1126 23.9585 30.0824 24.0944 30.049C25.5077 29.6969 26.7654 28.9697 27.8676 27.8676C28.7219 27.0127 29.3509 26.0646 29.7546 25.0234C30.0798 24.1844 30.2588 23.285 30.2916 22.3252C30.2951 22.2174 30.2969 22.109 30.2969 22C30.2969 21.9883 30.2969 21.9766 30.2969 21.9648C30.2969 21.959 30.2969 21.9531 30.2969 21.9473C30.2928 21.2289 30.209 20.5434 30.0455 19.8906C30.025 19.8104 30.0036 19.7307 29.9813 19.6516C29.9635 19.5896 29.9447 19.5278 29.9251 19.4661Z" fill="#CBCCC2"/>
<path d="M25.5684 17.834L24.8828 17.957L24.2676 17.3418L22 15.7607L20.1815 17.5352L20.8908 21.9692L18.4141 26.166L22.5309 30.2828C22.5713 30.2804 22.6114 30.2778 22.6513 30.2749C23.0034 30.2497 23.3474 30.2046 23.6831 30.1396C23.8214 30.1126 23.9585 30.0824 24.0944 30.049C25.5077 29.6969 26.7654 28.9697 27.8676 27.8676C28.7219 27.0127 29.3509 26.0647 29.7546 25.0234C30.0546 24.2493 30.2301 23.4237 30.2811 22.5467L25.5684 17.834Z" fill="black" fill-opacity="0.2"/>
<path d="M21.9605 15.1656C21.8418 15.1661 21.7398 15.208 21.6546 15.2913L19.8528 17.0579C19.8038 17.1063 19.7677 17.1631 19.7447 17.2284C19.7222 17.2936 19.7155 17.3601 19.7245 17.4279L19.9126 18.8711H19.6621C19.5408 18.8711 19.4371 18.9139 19.351 18.9994C19.2655 19.0855 19.2227 19.1892 19.2227 19.3105C19.2227 19.4319 19.2655 19.5353 19.351 19.6208C19.4371 19.7069 19.5408 19.75 19.6621 19.75H20.0269L20.3441 22.1854C20.3491 22.2228 20.3579 22.2577 20.3705 22.29L18.3833 25.6466C18.3219 25.7517 18.3064 25.8627 18.3367 25.9797C18.367 26.0969 18.4343 26.1865 18.5389 26.2486C18.6433 26.3106 18.7541 26.3264 18.8711 26.2961C18.9883 26.2658 19.078 26.1984 19.14 26.0939L23.0099 19.5566C23.0215 19.5403 23.0317 19.5233 23.0406 19.5057L24.17 17.5949C24.2222 17.5068 24.2413 17.4125 24.2272 17.3119C24.2137 17.212 24.1704 17.1265 24.0971 17.0553L22.2672 15.2887C22.1814 15.2062 22.0792 15.1652 21.9605 15.1656ZM20.7994 18.8711L20.6245 17.5316L21.964 16.2177L23.2366 17.4464L22.3946 18.8711H20.7994ZM20.9137 19.75H21.8743L21.0868 21.0798L20.9137 19.75ZM22.4395 17.2442C22.4394 17.1229 22.3964 17.0192 22.3103 16.9331C22.2248 16.8476 22.1213 16.8048 22 16.8048C21.8787 16.8048 21.775 16.8476 21.6889 16.9331C21.6033 17.0192 21.5606 17.1229 21.5606 17.2442V17.4745C21.5606 17.5958 21.6033 17.6993 21.6889 17.7848C21.775 17.8709 21.8787 17.9139 22 17.914C22.1213 17.9139 22.2248 17.8709 22.3103 17.7848C22.3964 17.6993 22.4394 17.5958 22.4395 17.4745V17.2442ZM25.694 17.9623C25.6638 17.8451 25.5964 17.7555 25.4919 17.6934C25.3874 17.6314 25.2767 17.6156 25.1597 17.6459C25.0425 17.6762 24.9525 17.7433 24.8898 17.8472L19.8599 26.3462C19.8083 26.4349 19.7892 26.5292 19.8027 26.6292C19.8167 26.7297 19.8601 26.8152 19.9328 26.8858L21.7574 28.6472C21.7679 28.6572 21.7784 28.6666 21.7891 28.6753C21.867 28.7412 21.9584 28.7746 22.0633 28.7755C22.1845 28.7771 22.2888 28.7355 22.3762 28.6507L24.1779 26.8841C24.2268 26.8356 24.2625 26.7788 24.2852 26.7136C24.308 26.6483 24.315 26.5815 24.3063 26.5132L23.6866 21.7557C23.6817 21.719 23.6729 21.6841 23.6603 21.6511L25.6466 18.2945C25.7085 18.19 25.7244 18.0793 25.694 17.9623ZM22.5027 23.6576C22.5027 23.6419 22.5019 23.6264 22.5001 23.611L22.944 22.8613L23.4063 26.4095L22.5027 27.2954V23.6576ZM20.7933 26.4956L21.6238 25.0929V27.2963L20.7933 26.4956Z" fill="#4A4B48"/>
</g>
<defs>
<clipPath id="clip0_220_399">
<rect width="18" height="18" fill="white" transform="translate(13 13)"/>
</clipPath>
</defs>
</svg>
