<svg width="44" height="44" viewBox="0 0 44 44" fill="none" xmlns="http://www.w3.org/2000/svg">
<path d="M19 31C20.656 31 22 29.656 22 28V25H19C17.344 25 16 26.344 16 28C16 29.656 17.344 31 19 31Z" fill="#0ACF83"/>
<path d="M16 22C16 20.344 17.344 19 19 19H22V25H19C17.344 25 16 23.656 16 22Z" fill="#A259FF"/>
<path d="M15.9999 16C15.9999 14.344 17.3439 13 18.9999 13H21.9999V19H18.9999C17.3439 19 15.9999 17.656 15.9999 16Z" fill="#F24E1E"/>
<path d="M22 13H25C26.656 13 28 14.344 28 16C28 17.656 26.656 19 25 19H22V13Z" fill="#FF7262"/>
<path d="M28 22C28 23.656 26.656 25 25 25C23.344 25 22 23.656 22 22C22 20.344 23.344 19 25 19C26.656 19 28 20.344 28 22Z" fill="#1ABCFE"/>
</svg>
