<svg width="44" height="44" viewBox="0 0 44 44" fill="none" xmlns="http://www.w3.org/2000/svg">
<path d="M16.4287 27.9355C14.918 27.9355 14.1113 27.1357 14.1113 25.6387V17.3057C14.1113 15.8223 14.918 15.0293 16.251 15.0293H18.1719C18.917 15.0293 19.2793 15.166 19.7783 15.5625L20.1475 15.8633C20.5508 16.1846 20.8584 16.3008 21.3643 16.3008H27.5713C29.0752 16.3008 29.8818 17.1006 29.8818 18.5977V25.6387C29.8818 27.1357 29.082 27.9355 27.7148 27.9355H16.4287ZM15.6357 17.4561V19.165H28.3643V18.7549C28.3643 18.126 28.0293 17.8252 27.4414 17.8252H20.9541C20.209 17.8252 19.8398 17.6885 19.3477 17.292L18.9717 16.9912C18.5684 16.6631 18.2676 16.5537 17.7686 16.5537H16.5518C15.9639 16.5537 15.6357 16.8682 15.6357 17.4561ZM16.5586 26.4111H27.4414C28.0293 26.4111 28.3643 26.1104 28.3643 25.4814V20.457H15.6357V25.4814C15.6357 26.1104 15.957 26.4111 16.5586 26.4111Z" fill="#91918E"/>
</svg>
