<svg width="44" height="44" viewBox="0 0 44 44" fill="none" xmlns="http://www.w3.org/2000/svg">
<path fill-rule="evenodd" clip-rule="evenodd" d="M25.2125 13.425L29.3125 17.55L29.5 18V30.125L28.875 30.75H15.125L14.5 30.125V13.875L15.125 13.25H24.775L25.2125 13.425ZM24.5 18.25H28.25L24.5 14.5V18.25ZM15.75 14.5V29.5H28.25V19.5H23.875L23.25 18.875V14.5H15.75ZM18.3275 23.9162L20.5988 21.6312L19.7125 20.75L17 23.4737V24.3575L19.7138 27.075L20.5975 26.1912L18.3275 23.9162ZM23 21.6425L23.875 20.7563L26.6113 23.475V24.3612L23.875 27.0775L22.9938 26.1912L25.2825 23.9162L23 21.6425Z" fill="black"/>
</svg>
