<svg width="44" height="44" viewBox="0 0 44 44" fill="none" xmlns="http://www.w3.org/2000/svg">
<g clip-path="url(#clip0_220_438)">
<path fill-rule="evenodd" clip-rule="evenodd" d="M16.5312 14.5L14.6265 17.8333L16.5312 21.1666H20.3259L22.2307 17.8333L20.3259 14.5H16.5312ZM23.6741 17L21.5331 13.2532C21.3847 12.9936 21.1086 12.8333 20.8095 12.8333H16.0476C15.7486 12.8333 15.4725 12.9936 15.3241 13.2532L12.9431 17.4199C12.7967 17.6761 12.7967 17.9906 12.9431 18.2468L15.0878 22L12.9431 25.7532C12.7967 26.0094 12.7967 26.3239 12.9431 26.5801L15.3241 30.7467C15.4725 31.0064 15.7486 31.1666 16.0476 31.1666H20.8095C21.1086 31.1666 21.3847 31.0064 21.5331 30.7467L23.6741 27H27.9523C28.2514 27 28.5275 26.8397 28.6759 26.5801L31.0568 22.4134C31.2033 22.1572 31.2033 21.8427 31.0568 21.5866L28.6759 17.4199C28.5275 17.1602 28.2514 17 27.9523 17H23.6741ZM23.6741 25.3333L21.7693 22L23.6741 18.6666H27.4688L29.3735 22L27.4688 25.3333H23.6741ZM22.2307 26.1666L20.3259 22.8333H16.5312L14.6265 26.1666L16.5312 29.5H20.3259L22.2307 26.1666Z" fill="black"/>
</g>
<defs>
<clipPath id="clip0_220_438">
<rect width="20" height="20" fill="white" transform="translate(12 12)"/>
</clipPath>
</defs>
</svg>
