<svg width="44" height="44" viewBox="0 0 44 44" fill="none" xmlns="http://www.w3.org/2000/svg">
<path d="M17.3994 27.5391C16.5449 27.5391 16.1006 27.0332 15.8545 26.2607L14.5146 21.9336C14.4531 21.7559 14.4189 21.6055 14.4189 21.4209C14.4189 20.9561 14.7744 20.5869 15.2871 20.5869C15.7588 20.5869 16.0186 20.8262 16.1621 21.3184L17.3447 25.4951H17.502L20.209 16.6289C20.4756 15.7949 20.8926 15.4121 21.8496 15.4121H28.7061C29.2324 15.4121 29.5811 15.7539 29.5811 16.2598C29.5811 16.7793 29.2324 17.1211 28.7061 17.1211H21.9043L19.0059 26.2129C18.7529 26.9922 18.3018 27.5391 17.3994 27.5391ZM23.2236 26.3086C22.8203 26.3086 22.5332 26.0283 22.5332 25.6592C22.5332 25.4678 22.5811 25.3242 22.7178 25.1396L24.3721 22.8838L22.7998 20.7441C22.6426 20.5391 22.5879 20.3955 22.5879 20.1973C22.5879 19.8076 22.8955 19.5137 23.3057 19.5137C23.627 19.5137 23.7979 19.623 24.0234 19.9648L25.3633 21.9268H25.4043L26.6963 19.9648C26.9082 19.6299 27.0928 19.5137 27.4004 19.5137C27.8105 19.5137 28.1045 19.7939 28.1045 20.1768C28.1045 20.3545 28.0498 20.5117 27.9062 20.6963L26.2588 22.9111L27.8926 25.1123C28.0361 25.2969 28.0908 25.4473 28.0908 25.6387C28.0908 26.0283 27.79 26.3086 27.373 26.3086C27.0586 26.3086 26.8877 26.1924 26.6553 25.8438L25.3291 23.8887H25.2881L23.9414 25.8438C23.6953 26.1992 23.5312 26.3086 23.2236 26.3086Z" fill="#91918E"/>
</svg>
