<svg width="44" height="44" viewBox="0 0 44 44" fill="none" xmlns="http://www.w3.org/2000/svg">
<g clip-path="url(#clip0_220_322)">
<path fill-rule="evenodd" clip-rule="evenodd" d="M26.3722 26.8608C24.934 26.8608 24.466 25.7411 24.8359 24.4838L25.3696 22.5761C25.6198 21.7616 25.3435 21.0073 24.4804 21.0073C23.7199 21.0073 23.2186 21.4247 22.9603 22.4759L21.9253 26.5H20.1145L20.4394 25.3227C19.9075 26.1975 19.1677 26.8032 18.256 26.8032C16.852 26.8032 16.4146 25.8179 16.7359 24.4508L17.5603 21.1H16.2832L16.6711 19.3H19.7437L18.5305 24.2931C18.3874 24.8358 18.2695 25.5001 18.8059 25.6207C18.9499 25.6531 20.0992 25.655 20.7247 24.2645L21.5212 21.1H20.2279L20.6158 19.3H23.3806L23.0251 21.107C23.5102 20.2016 24.4804 19.4323 25.4344 19.4323C26.9878 19.4323 27.6394 21.0305 27.1165 22.7963L26.599 24.6666C26.2786 25.9509 27.2092 26.1219 27.7951 24.4992L28.507 24.7747C28.0858 26.2462 27.3262 26.8608 26.3722 26.8608ZM19.0156 16.4963C19.6141 16.4963 20.1154 16.9653 20.1154 17.5791C20.1154 18.1938 19.6141 18.6628 19.0156 18.6628C18.4171 18.6628 17.9167 18.1938 17.9167 17.5791C17.9167 16.9653 18.4171 16.4963 19.0156 16.4963ZM29.3683 13H14.6317C13.7308 13 13 13.7299 13 14.6317V29.3683C13 30.2692 13.7308 31 14.6317 31H29.3683C30.2692 31 31 30.2692 31 29.3683V14.6317C31 13.7299 30.2692 13 29.3683 13Z" fill="black"/>
</g>
<defs>
<clipPath id="clip0_220_322">
<rect width="18" height="18" fill="white" transform="translate(13 13)"/>
</clipPath>
</defs>
</svg>
