<svg width="44" height="44" viewBox="0 0 44 44" fill="none" xmlns="http://www.w3.org/2000/svg">
<path d="M21.5283 24.4492C20.7969 24.3057 20.2637 24.0049 19.8877 23.6221C18.165 21.9062 18.1719 19.4795 19.8809 17.7773L22.2871 15.3643C23.9893 13.6621 26.4092 13.6484 28.1318 15.3779C29.8545 17.0938 29.8545 19.5273 28.1387 21.2227L26.2178 23.1436C26.3682 22.5488 26.2793 21.8721 26.04 21.3252L27.0859 20.2793C28.2139 19.1514 28.2207 17.5654 27.0791 16.4238C25.9512 15.2959 24.3652 15.2959 23.2305 16.4307L20.9336 18.7207C19.8057 19.8486 19.8057 21.4414 20.9404 22.5762C21.3369 22.9727 21.9111 23.2324 22.6699 23.3076L21.5283 24.4492ZM22.4648 18.5908C23.1963 18.7275 23.7295 19.0283 24.1055 19.4111C25.8281 21.127 25.8213 23.5537 24.1191 25.2559L21.7129 27.6689C20.0039 29.3711 17.584 29.3848 15.8613 27.6553C14.1387 25.9395 14.1387 23.5059 15.8545 21.8105L17.7754 19.8896C17.625 20.4844 17.7139 21.1611 17.9531 21.708L16.9072 22.7539C15.7793 23.8818 15.7793 25.4678 16.9141 26.6094C18.0488 27.7373 19.6348 27.7373 20.7627 26.6094L23.0596 24.3125C24.1875 23.1846 24.1875 21.5918 23.0527 20.457C22.6562 20.0605 22.082 19.8076 21.3301 19.7256L22.4648 18.5908Z" fill="#91918E"/>
</svg>
