<svg width="44" height="44" viewBox="0 0 44 44" fill="none" xmlns="http://www.w3.org/2000/svg">
<path d="M16.1895 28.0176C14.6787 28.0176 13.8721 27.2246 13.8721 25.7207V17.4219C13.8721 15.918 14.6787 15.125 16.1895 15.125H27.8037C29.3145 15.125 30.1211 15.9248 30.1211 17.4219V25.7207C30.1211 27.2178 29.3145 28.0176 27.8037 28.0176H16.1895ZM16.3193 26.4932H27.6738C28.2686 26.4932 28.5967 26.1924 28.5967 25.5635V17.5791C28.5967 16.9502 28.2686 16.6494 27.6738 16.6494H16.3193C15.7178 16.6494 15.3965 16.9502 15.3965 17.5791V25.5635C15.3965 26.1924 15.7178 26.4932 16.3193 26.4932ZM17.5977 19.2812C17.3105 19.2812 17.0645 19.0352 17.0645 18.7412C17.0645 18.4473 17.3037 18.208 17.5977 18.208H18.3496C18.6367 18.208 18.8896 18.4473 18.8896 18.7412C18.8896 19.042 18.6367 19.2812 18.3496 19.2812H17.5977ZM20.209 19.2061C19.9492 19.2061 19.751 19.001 19.751 18.7412C19.751 18.4883 19.9492 18.29 20.209 18.29H26.4502C26.71 18.29 26.915 18.4883 26.915 18.7412C26.915 19.001 26.71 19.2061 26.4502 19.2061H20.209ZM17.5977 21.4961C17.3037 21.4961 17.0645 21.2568 17.0645 20.9629C17.0645 20.6689 17.3037 20.4229 17.5977 20.4229H18.3496C18.6436 20.4229 18.8896 20.6689 18.8896 20.9629C18.8896 21.2568 18.6367 21.4961 18.3496 21.4961H17.5977ZM20.209 21.4209C19.9492 21.4209 19.751 21.2158 19.751 20.9629C19.751 20.7031 19.9561 20.498 20.209 20.498H26.4502C26.71 20.498 26.915 20.7031 26.915 20.9629C26.915 21.2227 26.71 21.4209 26.4502 21.4209H20.209Z" fill="#91918E"/>
<mask id="path-2-outside-1_220_241" maskUnits="userSpaceOnUse" x="23" y="17.9375" width="17" height="16" fill="black">
<rect fill="white" x="23" y="17.9375" width="17" height="16"/>
<path d="M28.6587 22.1523C29.4277 21.4844 30.478 21.0449 31.6294 21.0449C34.0508 21.0449 36.002 22.8555 36.3228 25.0615H36.9775C37.395 25.0615 37.5093 25.4219 37.2456 25.7822L35.9844 27.4961C35.7778 27.7817 35.4263 27.7861 35.2153 27.4961L33.9629 25.7822C33.6948 25.4175 33.8223 25.0615 34.2266 25.0615H34.9253C34.6265 23.6025 33.3037 22.416 31.6294 22.416C30.8208 22.416 30.0781 22.7236 29.5112 23.207C29.0762 23.5278 28.6763 23.4092 28.4697 23.1147C28.2852 22.8467 28.3027 22.4336 28.6587 22.1523ZM26 25.7515L27.2612 24.042C27.4678 23.7563 27.8193 23.752 28.0303 24.042L29.2827 25.7559C29.5508 26.1206 29.4233 26.4766 29.019 26.4766H28.3335C28.6367 27.9355 29.9595 29.1221 31.6294 29.1221C32.4424 29.1221 33.1895 28.8145 33.752 28.3311C34.187 28.0103 34.5869 28.1245 34.7891 28.4189C34.978 28.687 34.9561 29.1001 34.6045 29.3813C33.8354 30.0537 32.7808 30.4932 31.6294 30.4932C29.2124 30.4932 27.2568 28.6826 26.936 26.4766H26.2681C25.8506 26.4766 25.7363 26.1162 26 25.7515Z"/>
</mask>
<path d="M28.6587 22.1523C29.4277 21.4844 30.478 21.0449 31.6294 21.0449C34.0508 21.0449 36.002 22.8555 36.3228 25.0615H36.9775C37.395 25.0615 37.5093 25.4219 37.2456 25.7822L35.9844 27.4961C35.7778 27.7817 35.4263 27.7861 35.2153 27.4961L33.9629 25.7822C33.6948 25.4175 33.8223 25.0615 34.2266 25.0615H34.9253C34.6265 23.6025 33.3037 22.416 31.6294 22.416C30.8208 22.416 30.0781 22.7236 29.5112 23.207C29.0762 23.5278 28.6763 23.4092 28.4697 23.1147C28.2852 22.8467 28.3027 22.4336 28.6587 22.1523ZM26 25.7515L27.2612 24.042C27.4678 23.7563 27.8193 23.752 28.0303 24.042L29.2827 25.7559C29.5508 26.1206 29.4233 26.4766 29.019 26.4766H28.3335C28.6367 27.9355 29.9595 29.1221 31.6294 29.1221C32.4424 29.1221 33.1895 28.8145 33.752 28.3311C34.187 28.0103 34.5869 28.1245 34.7891 28.4189C34.978 28.687 34.9561 29.1001 34.6045 29.3813C33.8354 30.0537 32.7808 30.4932 31.6294 30.4932C29.2124 30.4932 27.2568 28.6826 26.936 26.4766H26.2681C25.8506 26.4766 25.7363 26.1162 26 25.7515Z" fill="#91918E"/>
<path d="M28.6587 22.1523L30.2086 24.1139L30.2542 24.0779L30.2981 24.0398L28.6587 22.1523ZM36.3228 25.0615L33.8488 25.4213L34.16 27.5615H36.3228V25.0615ZM37.2456 25.7822L39.2592 27.264L39.2632 27.2585L37.2456 25.7822ZM35.9844 27.4961L33.9708 26.0143L33.9646 26.0228L33.9585 26.0312L35.9844 27.4961ZM35.2153 27.4961L37.2372 26.0257L37.2338 26.0211L35.2153 27.4961ZM33.9629 25.7822L35.9814 24.3072L35.9774 24.3017L33.9629 25.7822ZM34.9253 25.0615V27.5615H37.9892L37.3744 24.5599L34.9253 25.0615ZM29.5112 23.207L30.9949 25.2192L31.0661 25.1667L31.1333 25.1093L29.5112 23.207ZM28.4697 23.1147L26.4106 24.5325L26.4168 24.5415L26.4231 24.5505L28.4697 23.1147ZM26 25.7515L23.9883 24.2672L23.9811 24.277L23.9739 24.2868L26 25.7515ZM27.2612 24.042L29.273 25.5262L29.2801 25.5166L29.2871 25.5069L27.2612 24.042ZM28.0303 24.042L26.0084 25.5124L26.0118 25.517L28.0303 24.042ZM29.2827 25.7559L27.2642 27.2309L27.2682 27.2364L29.2827 25.7559ZM28.3335 26.4766V23.9766H25.2605L25.8858 26.9853L28.3335 26.4766ZM33.752 28.3311L32.2683 26.3189L32.1932 26.3742L32.1225 26.435L33.752 28.3311ZM34.7891 28.4189L32.7281 29.834L32.7368 29.8467L32.7457 29.8593L34.7891 28.4189ZM34.6045 29.3813L33.0428 27.4292L33.0001 27.4633L32.959 27.4992L34.6045 29.3813ZM26.936 26.4766L29.41 26.1168L29.0988 23.9766H26.936V26.4766ZM30.2981 24.0398C30.6386 23.744 31.1144 23.5449 31.6294 23.5449V18.5449C29.8417 18.5449 28.2169 19.2247 27.0193 20.2649L30.2981 24.0398ZM31.6294 23.5449C32.7794 23.5449 33.7024 24.4145 33.8488 25.4213L38.7967 24.7018C38.3015 21.2965 35.3222 18.5449 31.6294 18.5449V23.5449ZM36.3228 27.5615H36.9775V22.5615H36.3228V27.5615ZM36.9775 27.5615C36.4373 27.5615 35.4089 27.248 35.0101 26.1203C34.6845 25.1996 35.076 24.5137 35.228 24.306L39.2632 27.2585C39.6789 26.6904 40.1451 25.6441 39.7239 24.4532C39.2295 23.0552 37.9353 22.5615 36.9775 22.5615V27.5615ZM35.2321 24.3005L33.9708 26.0143L37.9979 28.9779L39.2592 27.264L35.2321 24.3005ZM33.9585 26.0312C34.2554 25.6206 34.8238 25.215 35.5917 25.212C36.3648 25.209 36.9387 25.6153 37.2372 26.0257L33.1935 28.9665C33.7029 29.667 34.5581 30.2161 35.6113 30.212C36.6593 30.2078 37.5068 29.6573 38.0103 28.961L33.9585 26.0312ZM37.2338 26.0211L35.9814 24.3072L31.9444 27.2573L33.1969 28.9711L37.2338 26.0211ZM35.9774 24.3017C36.1382 24.5206 36.5273 25.2166 36.1924 26.1387C35.7932 27.2375 34.789 27.5615 34.2266 27.5615V22.5615C33.2598 22.5615 31.9898 23.0636 31.4928 24.4315C31.0601 25.6228 31.5195 26.6791 31.9484 27.2627L35.9774 24.3017ZM34.2266 27.5615H34.9253V22.5615H34.2266V27.5615ZM37.3744 24.5599C36.8445 21.9724 34.5261 19.916 31.6294 19.916V24.916C32.0813 24.916 32.4084 25.2327 32.4761 25.5632L37.3744 24.5599ZM31.6294 19.916C30.1787 19.916 28.8709 20.4675 27.8891 21.3047L31.1333 25.1093C31.2853 24.9797 31.4629 24.916 31.6294 24.916V19.916ZM28.0275 21.1949C28.2321 21.044 28.673 20.8311 29.2668 20.9179C29.8465 21.0028 30.2734 21.3326 30.5164 21.679L26.4231 24.5505C26.8726 25.1913 27.6027 25.7277 28.5428 25.8653C29.4969 26.0049 30.3553 25.6908 30.9949 25.2192L28.0275 21.1949ZM30.5288 21.697C30.7943 22.0825 30.9027 22.5512 30.8338 23.0097C30.7606 23.4972 30.5035 23.8809 30.2086 24.1139L27.1088 20.1908C25.7176 21.2899 25.4805 23.1816 26.4106 24.5325L30.5288 21.697ZM28.0117 27.2357L29.273 25.5262L25.2495 22.5578L23.9883 24.2672L28.0117 27.2357ZM29.2871 25.5069C28.9902 25.9175 28.4218 26.3231 27.6539 26.3261C26.8808 26.3291 26.3069 25.9228 26.0084 25.5124L30.0521 22.5716C29.5427 21.8711 28.6875 21.322 27.6343 21.3261C26.5863 21.3302 25.7388 21.8808 25.2354 22.5771L29.2871 25.5069ZM26.0118 25.517L27.2642 27.2309L31.3012 24.2808L30.0488 22.567L26.0118 25.517ZM27.2682 27.2364C27.1074 27.0175 26.7183 26.3215 27.0533 25.3994C27.4524 24.3006 28.4566 23.9766 29.019 23.9766V28.9766C29.9858 28.9766 31.2558 28.4745 31.7528 27.1066C32.1855 25.9153 31.7261 24.8589 31.2972 24.2753L27.2682 27.2364ZM29.019 23.9766H28.3335V28.9766H29.019V23.9766ZM25.8858 26.9853C26.4216 29.5633 28.7337 31.6221 31.6294 31.6221V26.6221C31.1853 26.6221 30.8518 26.3078 30.7812 25.9679L25.8858 26.9853ZM31.6294 31.6221C33.0777 31.6221 34.3946 31.0751 35.3814 30.2271L32.1225 26.435C31.9843 26.5538 31.8071 26.6221 31.6294 26.6221V31.6221ZM35.2356 30.3432C35.0384 30.4886 34.6033 30.7034 34.0096 30.6199C33.4231 30.5374 32.9809 30.2023 32.7281 29.834L36.8501 27.0039C36.395 26.3412 35.6519 25.8017 34.7061 25.6687C33.7531 25.5346 32.9006 25.8527 32.2683 26.3189L35.2356 30.3432ZM32.7457 29.8593C32.152 29.0171 32.391 27.9506 33.0428 27.4292L36.1662 31.3335C37.5211 30.2496 37.804 28.3569 36.8324 26.9786L32.7457 29.8593ZM32.959 27.4992C32.6232 27.7928 32.1465 27.9932 31.6294 27.9932V32.9932C33.415 32.9932 35.0477 32.3146 36.25 31.2635L32.959 27.4992ZM31.6294 27.9932C30.4824 27.9932 29.5562 27.1222 29.41 26.1168L24.4621 26.8363C24.9575 30.243 27.9424 32.9932 31.6294 32.9932V27.9932ZM26.936 23.9766H26.2681V28.9766H26.936V23.9766ZM26.2681 23.9766C26.5157 23.9766 26.9013 24.0302 27.3065 24.2752C27.7332 24.5332 28.0666 24.9375 28.2366 25.4202C28.5592 26.3361 28.1708 27.0158 28.0261 27.2161L23.9739 24.2868C23.5655 24.8518 23.1024 25.8941 23.5206 27.0813C24.0137 28.4812 25.3087 28.9766 26.2681 28.9766V23.9766Z" fill="white" mask="url(#path-2-outside-1_220_241)"/>
</svg>
