<svg width="44" height="44" viewBox="0 0 44 44" fill="none" xmlns="http://www.w3.org/2000/svg">
<path d="M30.75 21.0275H25.6325L30.065 18.4688L29.0913 16.7813L24.66 19.3413L27.2175 14.9087L25.5312 13.935L22.975 18.3662V13.25H21.025V18.3675L18.4675 13.935L16.7825 14.9087L19.34 19.34L14.9087 16.7825L13.935 18.4675L18.3675 21.0263H13.25V22.9725H18.3662L13.935 25.5312L14.9087 27.2188L19.34 24.66L16.7813 29.0913L18.4688 30.065L21.0263 25.6325V30.75H22.9725V25.6325L25.5312 30.065L27.2175 29.0913L24.6587 24.6587L29.09 27.2175L30.0638 25.5312L25.6325 22.9738H30.7487L30.75 21.0275ZM22 24.6475C21.2952 24.6475 20.6192 24.3675 20.1209 23.8691C19.6225 23.3708 19.3425 22.6948 19.3425 21.99C19.3425 21.2852 19.6225 20.6092 20.1209 20.1109C20.6192 19.6125 21.2952 19.3325 22 19.3325C22.7048 19.3325 23.3808 19.6125 23.8791 20.1109C24.3775 20.6092 24.6575 21.2852 24.6575 21.99C24.6575 22.6948 24.3775 23.3708 23.8791 23.8691C23.3808 24.3675 22.7048 24.6475 22 24.6475Z" fill="#625DF5"/>
</svg>
