<svg width="44" height="44" fill="none" xmlns="http://www.w3.org/2000/svg"><path d="M16.2 25.8c-1 0-1.8-.7-1.8-1.7v-2.3c0-1.1.7-1.8 1.8-1.8h5.1v-.9h-5c-1.2 0-1.9-.7-1.9-1.7V15c0-1.1.7-1.8 1.8-1.8h11.6c1 0 1.8.7 1.8 1.8v2.3c0 1-.7 1.7-1.8 1.7h-5.1v1h5c1.2 0 1.9.6 1.9 1.7V24c0 1-.7 1.7-1.8 1.7h-5.1v.9h1c.6 0 .8.5.4 1l-1.7 2c-.2.3-.6.3-.8 0l-1.7-2c-.4-.5-.2-1 .4-1h1v-.9h-5Zm.2-8.1h11.2c.3 0 .5-.2.5-.6v-1.8c0-.3-.2-.6-.5-.6H16.4c-.3 0-.5.3-.5.6V17c0 .4.2.6.5.6Zm0 6.7h11.2c.3 0 .5-.2.5-.6V22c0-.3-.2-.5-.5-.5H16.4c-.3 0-.5.2-.5.5v1.8c0 .4.2.6.5.6Z" fill="#91918E"/></svg>