<svg width="44" height="44" viewBox="0 0 44 44" fill="none" xmlns="http://www.w3.org/2000/svg">
<g clip-path="url(#clip0_220_330)">
<path d="M18.4831 20.6014H20.6149C20.0811 20.2669 19.8818 19.8007 19.6149 18.9358L18.8142 15.9696C18.4493 14.6351 18.1487 14 16.6824 14H13.6182V14.8007H14.0541C14.9527 14.8007 15.0541 15.1351 15.3209 16.1351L16.0203 18.7365C16.3851 20 16.9527 20.6014 18.4831 20.6014ZM23.4155 20.6014H25.5473C27.0811 20.6014 27.6115 20 27.9797 18.7365L28.6791 16.1351C28.9459 15.1351 29.0777 14.8007 29.9459 14.8007H30.3818V14H27.348C25.848 14 25.5473 14.6014 25.2128 15.9662L24.4122 18.9324C24.152 19.8311 23.9493 20.2669 23.4155 20.6014ZM20.6149 23.3986H23.4155V20.598H20.6149V23.3986ZM13.6182 30H16.6824C18.1487 30 18.4493 29.3649 18.8142 28.0338L19.6149 25.0676C19.8818 24.2027 20.0811 23.7331 20.6149 23.402H18.4831C16.9493 23.402 16.3818 24.0034 16.0169 25.2669L15.3176 27.8682C15.0473 28.8649 14.9493 29.1993 14.0507 29.1993H13.6149L13.6182 30ZM27.348 30H30.3818V29.1993H29.9459C29.0811 29.1993 28.9459 28.8649 28.6791 27.8649L27.9797 25.2635C27.6149 23.9966 27.0811 23.3986 25.5473 23.3986H23.4189C23.9527 23.7331 24.1453 24.1655 24.4122 25.0642L25.2128 28.0304C25.5439 29.3986 25.8446 30 27.348 30Z" fill="#1B0B3B"/>
</g>
<defs>
<clipPath id="clip0_220_330">
<rect width="16.7703" height="16" fill="white" transform="translate(13.6149 14)"/>
</clipPath>
</defs>
</svg>
