<svg width="44" height="44" fill="none" xmlns="http://www.w3.org/2000/svg"><path d="m18.5 17.6-.5-.2a.7.7 0 0 1-.2-.5l.2-.5c.2-.2.3-.3.5-.3h11.6c.2 0 .4.1.5.3.2 0 .3.3.3.5s-.1.3-.3.5l-.5.2H18.5Zm0 5.3c-.2 0-.3 0-.5-.2a.7.7 0 0 1-.2-.5l.2-.5c.2-.2.3-.2.5-.2h11.6c.2 0 .4 0 .5.2.2.1.3.3.3.5s-.1.3-.3.5l-.5.2H18.5Zm0 5.3c-.2 0-.3 0-.5-.2a.7.7 0 0 1-.2-.5l.2-.5c.2-.2.3-.2.5-.2h11.6c.2 0 .4 0 .5.2.2.1.3.3.3.5s-.1.3-.3.5l-.5.2H18.5Zm-3.4-9.6-.5-.1-.1-.5v-2.3l-.4.3h-.4a.4.4 0 0 1-.3-.3c0-.2 0-.3.2-.4l.7-.5.3-.1.4-.1c.2 0 .3 0 .4.2.2 0 .2.2.2.4V18l-.1.5-.4.1ZM13.6 24l-.3-.1-.1-.3c0-.2 0-.4.2-.5l1.2-1 .4-.4.1-.3-.1-.3-.3-.2c-.2 0-.4.2-.5.4l-.5.2c-.3 0-.5-.1-.5-.4 0-.3.1-.5.4-.7.3-.2.6-.3 1-.3.5 0 1 .1 1.2.3.3.2.4.5.4.9 0 .2 0 .5-.2.6l-.6.7-.8.6H16a.4.4 0 0 1 .4.4l-.1.3-.3.1h-2.3Zm1 5.5c-.3 0-.6 0-1-.2-.3-.2-.5-.4-.5-.7 0-.2 0-.3.2-.4h.7c0 .2.2.3.3.3l.4.1h.3l.2-.4c0-.2-.2-.4-.6-.4h-.1c-.3 0-.4-.1-.4-.4 0-.2.1-.3.4-.3l.5-.1.1-.3-.1-.3-.3-.1h-.3l-.3.3-.2.1-.2.1-.3-.1-.2-.3.2-.5.6-.3.7-.1c.4 0 .8 0 1 .2.3.2.5.5.5.8 0 .3 0 .5-.2.6a1 1 0 0 1-.6.3c.3 0 .5.1.7.3.2.2.2.4.2.6 0 .4-.1.7-.4.9a2 2 0 0 1-1.2.3Z" fill="#91918E"/></svg>