<svg width="44" height="44" viewBox="0 0 44 44" fill="none" xmlns="http://www.w3.org/2000/svg">
<path d="M10.8916 26.6162C10.3447 26.6162 10.0098 26.2812 10.0098 25.7002V17.5518C10.0098 16.9775 10.3447 16.6357 10.8916 16.6357H13.8447C15.8066 16.6357 17.167 17.9688 17.167 19.9375C17.167 21.9062 15.7656 23.2393 13.7695 23.2393H11.7734V25.7002C11.7734 26.2812 11.4453 26.6162 10.8916 26.6162ZM11.7734 21.8174H13.373C14.6377 21.8174 15.376 21.1338 15.376 19.9375C15.376 18.7549 14.6445 18.0781 13.3799 18.0781H11.7734V21.8174ZM19.3408 26.5C18.7939 26.5 18.459 26.1582 18.459 25.584V17.5518C18.459 16.9775 18.7939 16.6357 19.3408 16.6357H22.0615C25.0078 16.6357 26.751 18.4199 26.751 21.5439C26.751 24.668 25.0146 26.5 22.0615 26.5H19.3408ZM20.2227 25.0098H21.877C23.8594 25.0098 24.9531 23.7998 24.9531 21.5508C24.9531 19.3428 23.8457 18.126 21.877 18.126H20.2227V25.0098ZM29.0342 26.6162C28.4873 26.6162 28.1523 26.2812 28.1523 25.7002V17.5518C28.1523 16.9775 28.4873 16.6357 29.0342 16.6357H33.751C34.2363 16.6357 34.5576 16.9229 34.5576 17.3809C34.5576 17.8389 34.2295 18.126 33.751 18.126H29.916V21.0381H33.3955C33.8604 21.0381 34.168 21.3115 34.168 21.7559C34.168 22.2002 33.8604 22.4736 33.3955 22.4736H29.916V25.7002C29.916 26.2812 29.5879 26.6162 29.0342 26.6162Z" fill="#91918E"/>
</svg>
