<svg width="44" height="44" viewBox="0 0 44 44" fill="none" xmlns="http://www.w3.org/2000/svg">
<g clip-path="url(#clip0_220_427)">
<path d="M21.9999 24.6229C23.4485 24.6229 24.6228 23.4485 24.6228 21.9999C24.6228 20.5513 23.4485 19.377 21.9999 19.377C20.5513 19.377 19.3769 20.5513 19.3769 21.9999C19.3769 23.4485 20.5513 24.6229 21.9999 24.6229Z" stroke="black" stroke-width="1.5" stroke-linecap="round" stroke-linejoin="round"/>
<path d="M21.9999 26.5262C24.4997 26.5262 26.5262 24.4997 26.5262 21.9999C26.5262 19.5001 24.4997 17.4736 21.9999 17.4736C19.5 17.4736 17.4735 19.5001 17.4735 21.9999C17.4735 24.4997 19.5 26.5262 21.9999 26.5262Z" stroke="black" stroke-width="1.5" stroke-linecap="round" stroke-linejoin="round"/>
<path d="M22 30.9568C26.9467 30.9568 30.9568 26.9467 30.9568 22C30.9568 17.0533 26.9467 13.0432 22 13.0432C17.0533 13.0432 13.0432 17.0533 13.0432 22C13.0432 26.9467 17.0533 30.9568 22 30.9568Z" stroke="black" stroke-width="1.5" stroke-linecap="round" stroke-linejoin="round"/>
<path d="M13.3029 24.1004C13.1861 22.8772 13.4082 21.6454 13.945 20.5401C14.4819 19.4348 15.3127 18.4986 16.3463 17.8342C17.38 17.1698 18.5766 16.8028 19.805 16.7734C21.0335 16.7441 22.2463 17.0535 23.3105 17.6678" stroke="black" stroke-width="1.5" stroke-linecap="round" stroke-linejoin="round"/>
<path d="M19.8994 13.303C21.1226 13.1861 22.3544 13.4083 23.4597 13.9451C24.565 14.4819 25.5012 15.3127 26.1656 16.3464C26.83 17.38 27.197 18.5767 27.2264 19.8051C27.2557 21.0335 26.9463 22.2463 26.332 23.3106" stroke="black" stroke-width="1.5" stroke-linecap="round" stroke-linejoin="round"/>
<path d="M30.6968 19.8994C30.8136 21.1227 30.5915 22.3544 30.0546 23.4597C29.5178 24.5651 28.687 25.5012 27.6534 26.1657C26.6197 26.8301 25.4231 27.1971 24.1946 27.2264C22.9662 27.2558 21.7534 26.9464 20.6892 26.3321" stroke="black" stroke-width="1.5" stroke-linecap="round" stroke-linejoin="round"/>
<path d="M24.1003 30.6968C22.8771 30.8137 21.6453 30.5915 20.54 30.0547C19.4347 29.5179 18.4985 28.6871 17.8341 27.6534C17.1697 26.6198 16.8027 25.4231 16.7733 24.1947C16.7439 22.9662 17.0534 21.7534 17.6677 20.6892" stroke="black" stroke-width="1.5" stroke-linecap="round" stroke-linejoin="round"/>
</g>
<defs>
<clipPath id="clip0_220_427">
<rect width="20" height="20" fill="white" transform="translate(12 12)"/>
</clipPath>
</defs>
</svg>
