<svg width="44" height="44" viewBox="0 0 44 44" fill="none" xmlns="http://www.w3.org/2000/svg">
<g clip-path="url(#clip0_220_382)">
<path d="M17.0018 14.5265L21.9821 14L26.9625 14.5265L30.8182 19.7025L21.9821 29.992L13.1461 19.7025L17.0018 14.5265Z" fill="#FDB300"/>
<path d="M16.7251 19.7025L21.9821 29.992L13.1461 19.7025H16.7251Z" fill="#EA6C00"/>
<path d="M27.2392 19.7025L21.9821 29.992L30.8182 19.7025H27.2392Z" fill="#EA6C00"/>
<path d="M16.7251 19.7025H27.2392L21.9822 29.992L16.7251 19.7025Z" fill="#FDAD00"/>
<path d="M21.9822 14L17.0018 14.5265L16.7251 19.7025L21.9822 14Z" fill="#FDD231"/>
<path d="M21.9821 14L26.9625 14.5265L27.2392 19.7025L21.9821 14Z" fill="#FDD231"/>
<path d="M30.8182 19.7025L26.9625 14.5265L27.2392 19.7025H30.8182Z" fill="#FDAD00"/>
<path d="M13.1461 19.7025L17.0018 14.5265L16.7251 19.7025H13.1461Z" fill="#FDAD00"/>
<path d="M21.9822 14L16.7251 19.7025H27.2392L21.9822 14Z" fill="#FEEEB7"/>
</g>
<defs>
<clipPath id="clip0_220_382">
<rect width="17.7079" height="16" fill="white" transform="translate(13.1461 14)"/>
</clipPath>
</defs>
</svg>
