<svg width="44" height="44" fill="none" xmlns="http://www.w3.org/2000/svg"><path d="M19.7 27v-.6l1.5-.4v-4.8h-6V26l1.6.4v.6h-4.9v-.6l1.6-.4V16l-1.6-.4V15h4.9v.6l-1.6.5v4.2h6v-4.2l-1.5-.5V15h4.8v.6l-1.6.5V26l1.6.4v.6h-4.8Zm7.6 3.7c-.8 0-1.6-.4-1.6-1.1 0-.4.3-.7.8-.8l1.3 1.1c1.6 0 2.7-1.2 2.7-2.6 0-1.7-1.4-2.8-3.4-2.7v-.8l.7-.3c1.5-.8 2.3-1.9 2.3-2.8 0-1.1-.7-1.7-1.7-1.7-.7 0-1.3.4-1.9 1l-.4-.3c.7-1 1.5-2 3-2 1.7 0 2.6 1 2.6 2.4 0 1.3-1 2.1-2 2.9l-.5.4c1.4.3 2.9 1.4 2.9 3.2 0 2.3-2.6 4-4.8 4Z" fill="#91918E"/></svg>