<svg width="44" height="44" viewBox="0 0 44 44" fill="none" xmlns="http://www.w3.org/2000/svg">
<path d="M16.4287 27.9355C14.918 27.9355 14.1113 27.1357 14.1113 25.6387V17.3057C14.1113 15.8223 14.918 15.0293 16.251 15.0293H18.1719C18.917 15.0293 19.2793 15.166 19.7783 15.5625L20.1475 15.8633C20.5508 16.1846 21.0088 16.3008 21.3643 16.3008H22.3623C22.4717 15.002 23.2646 14.3115 24.6729 14.3115H30.6133C32.124 14.3115 32.9307 15.1113 32.9307 16.6084V20.7852C32.9307 22.2822 32.124 23.082 30.6133 23.082H29.8818V25.6387C29.8818 27.1357 29.082 27.9355 27.7148 27.9355H16.4287ZM24.7617 21.6055H30.5381C31.1328 21.6055 31.4609 21.3047 31.4609 20.6621V16.7314C31.4609 16.0889 31.1328 15.7881 30.5244 15.7881H24.7617C24.1533 15.7881 23.8252 16.0889 23.8252 16.7314V20.6621C23.8252 21.3047 24.1533 21.6055 24.7617 21.6055ZM27.6533 20.9082C27.3594 20.9082 27.168 20.7168 27.168 20.4297V19.1924H25.9375C25.6504 19.1924 25.4521 19.001 25.4521 18.707C25.4453 18.4131 25.6436 18.2217 25.9375 18.2217H27.168V16.9912C27.168 16.7041 27.3594 16.5127 27.6533 16.5059C27.9473 16.5059 28.1387 16.7041 28.1387 16.9912V18.2217H29.3691C29.6562 18.2217 29.8545 18.4131 29.8545 18.707C29.8545 19.001 29.6562 19.1924 29.3691 19.1924H28.1387V20.4297C28.1387 20.7168 27.9473 20.9082 27.6533 20.9082ZM15.6357 17.4561V19.165H22.3555V17.8252H21.1045C20.3594 17.8252 19.8398 17.6885 19.3477 17.292L18.9717 16.9912C18.5684 16.6631 18.2676 16.5537 17.7686 16.5537H16.5518C15.9639 16.5537 15.6357 16.8682 15.6357 17.4561ZM24.6729 23.082C23.1553 23.082 22.3555 22.2822 22.3555 20.7852V20.457H15.6357V25.4814C15.6357 26.1104 15.957 26.4111 16.5586 26.4111H27.4414C28.0293 26.4111 28.3643 26.1104 28.3643 25.4814V23.082H24.6729Z" fill="#91918E"/>
</svg>
