<svg width="44" height="44" viewBox="0 0 44 44" fill="none" xmlns="http://www.w3.org/2000/svg">
<path d="M14.0977 18.3652C13.5234 18.3652 13.0586 17.9004 13.0586 17.3262C13.0586 16.752 13.5234 16.2871 14.0977 16.2871C14.6719 16.2871 15.1367 16.752 15.1367 17.3262C15.1367 17.9004 14.6719 18.3652 14.0977 18.3652ZM17.4268 18.0508C17.0166 18.0508 16.7021 17.7295 16.7021 17.3262C16.7021 16.916 17.0234 16.6016 17.4268 16.6016H26.6758C27.0791 16.6016 27.4004 16.9229 27.4004 17.3262C27.4004 17.7295 27.0791 18.0508 26.6758 18.0508H17.4268ZM15.8682 22.6104C15.2939 22.6104 14.8291 22.1455 14.8291 21.5713C14.8291 20.9971 15.2939 20.5322 15.8682 20.5322C16.4355 20.5322 16.9072 20.9971 16.9072 21.5713C16.9072 22.1455 16.4355 22.6104 15.8682 22.6104ZM19.1973 22.2959C18.7871 22.2959 18.4727 21.9746 18.4727 21.5713C18.4727 21.168 18.7939 20.8467 19.1973 20.8467H28.4463C28.8496 20.8467 29.1709 21.168 29.1709 21.5713C29.1709 21.9814 28.8496 22.2959 28.4463 22.2959H19.1973ZM17.6387 26.8555C17.0645 26.8555 16.5996 26.3906 16.5996 25.8164C16.5996 25.249 17.0645 24.7773 17.6387 24.7773C18.2061 24.7773 18.6777 25.249 18.6777 25.8164C18.6777 26.3906 18.2061 26.8555 17.6387 26.8555ZM20.9678 26.541C20.5576 26.541 20.2432 26.2197 20.2432 25.8164C20.2432 25.4131 20.5645 25.0986 20.9678 25.0986H30.2168C30.6201 25.0986 30.9414 25.4131 30.9414 25.8164C30.9414 26.2266 30.6201 26.541 30.2168 26.541H20.9678Z" fill="#91918E"/>
</svg>
