<svg width="44" height="44" viewBox="0 0 44 44" fill="none" xmlns="http://www.w3.org/2000/svg">
<path d="M17.0166 16.5742C18.2607 15.2754 20.0449 14.4414 22.0068 14.4414C25.6504 14.4414 28.665 17.2236 29.0889 20.6826H30.0596C30.6201 20.6826 30.7637 21.1133 30.4355 21.5713L28.7266 23.9502C28.46 24.3193 28.043 24.3193 27.7832 23.9502L26.0742 21.5645C25.7461 21.1133 25.9033 20.6826 26.4502 20.6826H27.4961C27.0996 18.0645 24.8232 16.0068 22.0068 16.0068C20.4551 16.0068 19.0605 16.6494 18.0693 17.6748C17.6592 18.0371 17.208 17.9893 16.9209 17.6885C16.6406 17.4014 16.6338 16.9229 17.0166 16.5742ZM13.5576 21.5645L15.2666 19.1924C15.5332 18.8232 15.9502 18.8232 16.2168 19.1924L17.9189 21.5713C18.2471 22.0293 18.0898 22.4531 17.543 22.4531H16.5107C16.9072 25.0713 19.1836 27.1289 22.0068 27.1289C23.5586 27.1289 24.96 26.4863 25.9443 25.4541C26.3545 25.0986 26.8057 25.1328 27.0928 25.4404C27.3662 25.7207 27.373 26.2061 26.9971 26.5615C25.7529 27.8604 23.9688 28.7012 22.0068 28.7012C18.3564 28.7012 15.3418 25.9121 14.918 22.4531H13.9336C13.3799 22.4531 13.2295 22.0225 13.5576 21.5645Z" fill="#91918E"/>
</svg>
