<svg width="44" height="44" fill="none" xmlns="http://www.w3.org/2000/svg"><path d="M16 20.9c-.8 0-1.4-.2-2-.5a4 4 0 0 1-1.3-1.4c-.4-.6-.6-1.2-.6-2 0-.6.2-1.2.6-1.8.3-.6.8-1 1.3-1.4.6-.3 1.2-.5 2-.5.6 0 1.3.2 1.8.5.6.4 1 .8 1.4 1.4.4.6.5 1.2.5 1.9s-.1 1.3-.5 1.9a4 4 0 0 1-1.4 1.4c-.5.3-1.2.5-1.9.5Zm-.5-1.8c.2 0 .3 0 .4-.2l1.9-3v-.6h-.4c-.1 0-.3 0-.4.2L15.5 18l-.7-.9-.2-.2h-.2l-.3.1-.2.3c0 .2 0 .3.2.4l1 1.2.1.2h.3Zm.4 12c-.7 0-1.3-.2-1.9-.6a4 4 0 0 1-1.3-1.3 3.7 3.7 0 0 1 0-3.8c.3-.6.8-1 1.3-1.4.6-.4 1.2-.5 2-.5.6 0 1.3.1 1.8.5.6.3 1 .8 1.4 1.4.4.5.5 1.2.5 1.9 0 .6-.1 1.3-.5 1.9a4 4 0 0 1-1.4 1.3c-.5.4-1.2.5-1.9.5Zm0-1.3a2 2 0 0 0 1.3-.4c.4-.2.7-.5.9-.9l.3-1.2c0-.5 0-1-.3-1.3-.2-.4-.5-.7-1-1-.3-.1-.7-.3-1.2-.3-.4 0-.8.2-1.2.4-.4.2-.7.5-1 .9-.2.4-.3.8-.3 1.3 0 .4.1.8.4 1.2.2.4.5.7.9 1l1.2.3Zm6.5-12-.5-.2a.6.6 0 0 1-.2-.5c0-.2 0-.3.2-.5l.5-.2h8.8l.5.2.2.5-.2.5-.5.2h-8.8Zm0 10.1c-.2 0-.4 0-.5-.2a.6.6 0 0 1-.2-.4c0-.2 0-.4.2-.5l.5-.2h8.8c.2 0 .3 0 .5.2l.2.5-.2.4c-.2.2-.3.2-.5.2h-8.8Z" fill="#91918E"/></svg>