<svg width="44" height="44" fill="none" xmlns="http://www.w3.org/2000/svg"><path d="M9.1 25.9c-.3 0-.6-.3-.6-.8v-5.6c0-.4.3-.7.6-.7.2 0 .4 0 .6.2l5.5 2.6c.4.2.5.4.5.7 0 .3-.1.6-.5.7l-5.5 2.7-.6.2Zm17.1-.4V25l1.2-.3V21h-4.7v3.7l1.2.4v.4h-3.7V25l1.2-.3V17l-1.2-.3v-.5h3.7v.5l-1.2.3v3.3h4.7V17l-1.2-.3v-.5h3.7v.5l-1.2.3v7.7l1.2.4v.4h-3.7Zm5.9 2.9c-.6 0-1.2-.3-1.2-.9 0-.3.2-.5.6-.6l1 .9a2 2 0 0 0 2.1-2.1c0-1.3-1-2.2-2.6-2V23l.5-.2c1.2-.6 1.8-1.5 1.8-2.2 0-.9-.6-1.3-1.3-1.3-.5 0-1 .3-1.5.8l-.3-.3c.5-.8 1.2-1.5 2.4-1.5s2 .8 2 1.8-.8 1.7-1.6 2.3l-.4.3c1.1.3 2.2 1 2.2 2.5 0 1.8-2 3.2-3.7 3.2Z" fill="#91918E"/></svg>