<svg width="44" height="44" fill="none" xmlns="http://www.w3.org/2000/svg"><path d="M9.1 25.9c-.3 0-.6-.3-.6-.8v-5.6c0-.4.3-.7.6-.7.2 0 .4 0 .6.2l5.5 2.6c.4.2.5.4.5.7 0 .3-.1.6-.5.7l-5.5 2.7-.6.2Zm16.9-.4V25l1.2-.3V21h-4.6v3.7l1.2.4v.4h-3.7V25l1.1-.3V17l-1.1-.3v-.5h3.7v.5l-1.2.3v3.3h4.6V17l-1.1-.3v-.5h3.7v.5l-1.2.3v7.7l1.2.4v.4H26Zm7.1-1.9-.8.9H36v1h-5.2v-.4l.5-.5c1.7-1.8 2.7-2.7 2.7-3.9 0-.8-.6-1.4-1.4-1.4-.5 0-1 .3-1.4.8l-.3-.3c.5-.8 1.2-1.5 2.4-1.5s2 .8 2 1.8c0 1.2-1 2.2-2.3 3.5Z" fill="#91918E"/></svg>