<svg width="44" height="44" viewBox="0 0 44 44" fill="none" xmlns="http://www.w3.org/2000/svg">
<path fill-rule="evenodd" clip-rule="evenodd" d="M13.8721 25.7207C13.8721 27.2246 14.6787 28.0176 16.1895 28.0176H24.0659C23.8414 27.7649 23.6523 27.4554 23.5206 27.0813C23.4499 26.8806 23.4044 26.684 23.3795 26.4932H16.3193C15.7178 26.4932 15.3965 26.1924 15.3965 25.5635V17.5791C15.3965 16.9502 15.7178 16.6494 16.3193 16.6494H27.6738C28.2686 16.6494 28.5967 16.9502 28.5967 17.5791V19.2327C29.0744 19.0048 29.5854 18.8266 30.1211 18.7088V17.4219C30.1211 15.9248 29.3145 15.125 27.8037 15.125H16.1895C14.6787 15.125 13.8721 15.918 13.8721 17.4219V25.7207ZM30.1211 21.3037C29.7856 21.4221 29.47 21.5775 29.1807 21.7624C29.0127 21.8698 28.8536 21.9872 28.7046 22.1131C28.6892 22.1261 28.6739 22.1392 28.6587 22.1523C28.6493 22.1598 28.6401 22.1673 28.6311 22.1749C28.6192 22.1851 28.6078 22.1954 28.5967 22.2058V23.2531C28.6872 23.3281 28.7962 23.3782 28.9179 23.3934L28.9215 23.3938C29.0944 23.4143 29.2926 23.3645 29.499 23.2159L29.5112 23.207C29.5234 23.1967 29.5356 23.1864 29.548 23.1762C29.7238 23.0305 29.9159 22.9016 30.1211 22.7932V21.3037ZM28.9526 27.8121C28.7001 27.4855 28.5089 27.1142 28.3936 26.718C28.3705 26.6385 28.3504 26.558 28.3335 26.4766H29.019C29.2205 26.4766 29.3532 26.3882 29.4025 26.2544C29.411 26.2313 29.417 26.2069 29.4205 26.1813C29.4306 26.1065 29.4189 26.022 29.3833 25.9334C29.376 25.9151 29.3677 25.8967 29.3583 25.8781C29.338 25.8378 29.3129 25.7969 29.2827 25.7559L28.5967 24.8171V25.5635C28.5967 26.1924 28.2686 26.4932 27.6738 26.4932H26.9385C26.9517 26.5817 26.9675 26.6695 26.9859 26.7566C26.9955 26.802 27.0058 26.8473 27.0168 26.8923C27.1129 27.2866 27.2615 27.6646 27.4553 28.0176H27.8037C28.2486 28.0176 28.6325 27.9482 28.9526 27.8121Z" fill="#91918E"/>
<path d="M28.6587 22.1523C29.4277 21.4844 30.478 21.0449 31.6294 21.0449C34.0508 21.0449 36.002 22.8555 36.3228 25.0615H36.9775C37.395 25.0615 37.5093 25.4219 37.2456 25.7822L35.9844 27.4961C35.7778 27.7817 35.4263 27.7861 35.2153 27.4961L33.9629 25.7822C33.6948 25.4175 33.8223 25.0615 34.2266 25.0615H34.9253C34.6265 23.6025 33.3037 22.416 31.6294 22.416C30.8208 22.416 30.0781 22.7236 29.5112 23.207C29.0762 23.5278 28.6763 23.4092 28.4697 23.1147C28.2852 22.8467 28.3027 22.4336 28.6587 22.1523ZM26 25.7515L27.2612 24.042C27.4678 23.7563 27.8193 23.752 28.0303 24.042L29.2827 25.7559C29.5508 26.1206 29.4233 26.4766 29.019 26.4766H28.3335C28.6367 27.9355 29.9595 29.1221 31.6294 29.1221C32.4424 29.1221 33.1895 28.8145 33.752 28.3311C34.187 28.0103 34.5869 28.1245 34.7891 28.4189C34.978 28.687 34.9561 29.1001 34.6045 29.3813C33.8355 30.0537 32.7808 30.4932 31.6294 30.4932C29.2124 30.4932 27.2568 28.6826 26.936 26.4766H26.2681C25.8506 26.4766 25.7363 26.1162 26 25.7515Z" fill="#91918E"/>
</svg>
