<svg width="44" height="44" viewBox="0 0 44 44" fill="none" xmlns="http://www.w3.org/2000/svg">
<g clip-path="url(#clip0_220_415)">
<path d="M21.4739 12.0369C24.0435 11.8254 25.889 12.5074 27.8747 14.4919C30.0186 16.6345 31.4439 19.4111 31.828 22.3688C32.2554 25.658 31.6676 28.1125 29.8571 29.9095C28.1259 31.6278 25.5972 32.1946 22.2193 31.9122L22.0794 31.9C19.203 31.6355 17.1684 30.6924 15.1971 28.6959C13.0915 26.5634 11.9819 24.1421 12.0412 21.6008C12.0701 20.3567 12.4226 19.2963 13.1023 18.2559C13.5478 17.5739 14.0004 17.0418 14.9469 16.066L15.2628 15.7425L15.6111 15.3895C17.8544 13.1346 19.3313 12.2133 21.4739 12.0369ZM27.722 14.6447C25.781 12.7048 23.9978 12.0459 21.4916 12.2522C19.3795 12.4261 17.9291 13.3488 15.6591 15.6479L15.4948 15.8146C14.3888 16.9389 13.8705 17.5138 13.414 18.1786L13.3475 18.2766L13.2831 18.3741C12.6247 19.3819 12.2851 20.4035 12.2571 21.6058C12.1993 24.0841 13.2839 26.4508 15.3508 28.5442C17.3171 30.5356 19.3372 31.4546 22.2373 31.697L22.3811 31.7085C25.6298 31.9583 28.0518 31.3971 29.7049 29.7562C31.4614 28.0129 32.0333 25.6248 31.6138 22.3966C31.236 19.4876 29.833 16.7544 27.722 14.6447ZM25.0338 19.2677V20.3229H22.7928V26.3706H21.6764V20.3229H19.4354V19.2677H25.0338Z" fill="#262627"/>
</g>
<defs>
<clipPath id="clip0_220_415">
<rect width="20" height="20" fill="white" transform="translate(12 12)"/>
</clipPath>
</defs>
</svg>
