<svg width="44" height="44" viewBox="0 0 44 44" fill="none" xmlns="http://www.w3.org/2000/svg">
<path d="M16.292 27.2451C14.7607 27.2451 13.8926 26.4658 13.8926 24.9756V18.2217C13.8926 16.7314 14.8086 15.877 16.292 15.877H23.4424C24.9736 15.877 25.7939 16.7314 25.7939 18.2217V24.9072C25.7939 26.3975 24.9258 27.2451 23.3945 27.2451H16.292ZM26.8398 23.8682V19.3086L29.0889 17.374C29.4033 17.1143 29.7109 16.9365 30.0254 16.9365C30.5996 16.9365 30.9961 17.3467 30.9961 17.9619V25.2217C30.9961 25.8369 30.5996 26.2471 30.0254 26.2471C29.7178 26.2471 29.4033 26.0693 29.0889 25.8027L26.8398 23.8682Z" fill="#91918E"/>
</svg>
