<svg width="44" height="44" viewBox="0 0 44 44" fill="none" xmlns="http://www.w3.org/2000/svg">
<path d="M20.2968 17.7903C20.3452 17.7806 20.3839 17.771 20.4323 17.771L20.4807 17.7903C20.4226 17.7903 20.3548 17.7903 20.2968 17.7903Z" fill="#A665D2"/>
<path d="M22 30.7871C26.853 30.7871 30.7871 26.853 30.7871 22C30.7871 17.147 26.853 13.2129 22 13.2129C17.147 13.2129 13.2129 17.147 13.2129 22C13.2129 26.853 17.147 30.7871 22 30.7871Z" fill="#7A12CD"/>
<path d="M23.3258 17.8C23.4516 17.771 23.5871 17.7903 23.6936 17.8581C23.8678 18.0032 24.0129 18.1677 24.1774 18.3226C24.4 18.5452 24.6226 18.7677 24.8452 18.9903C24.971 19.0871 25.0581 19.2129 25.1839 19.3194C25.3 19.4742 25.4645 19.5806 25.5807 19.7258C25.6871 19.8226 25.7936 19.9194 25.8807 20.0258C26.1226 20.2387 26.3162 20.4903 26.5678 20.6935C26.7129 20.8677 26.8774 21.0226 27.0323 21.1774C27.2065 21.3516 27.3807 21.5258 27.5549 21.7097C27.5742 21.7581 27.6032 21.8161 27.6226 21.8645C27.6226 21.9226 27.6226 21.9903 27.6226 22.0484C27.5936 22.1355 27.5452 22.2129 27.4871 22.2806C26.2484 23.5194 25.0097 24.7581 23.7613 26.0064C23.6936 26.0548 23.6258 26.0935 23.5484 26.1226C23.4807 26.1226 23.4226 26.1226 23.3549 26.1226C23.2774 26.0935 23.2097 26.0548 23.142 26.0064C22.871 25.7355 22.5903 25.4548 22.3194 25.1839C22.2323 25.0968 22.1452 25 22.0484 24.9129C22 24.8645 21.9613 24.8161 21.9129 24.7774L21.8936 24.7581C21.6903 24.5548 21.4968 24.3516 21.2936 24.1581C21.2742 24.1387 21.2549 24.1194 21.2355 24.1C20.8871 23.7516 20.5484 23.4129 20.2 23.0645C19.9484 22.8032 19.6871 22.5516 19.4258 22.2903C19.3581 22.2226 19.3097 22.1452 19.2903 22.0581C19.2903 22 19.2903 21.9516 19.2903 21.8935C19.3291 21.7194 19.4742 21.5935 19.5903 21.4774C19.6774 21.3806 19.7742 21.2935 19.8613 21.2065C20.0742 21.0032 20.2678 20.7806 20.4807 20.5774C20.742 20.3355 20.9742 20.0839 21.2258 19.8323C21.2452 19.8129 21.2645 19.8032 21.2839 19.7935C21.4871 19.5903 21.7 19.3968 21.8839 19.1839L21.9129 19.1548C22.1355 18.9129 22.3774 18.6903 22.6097 18.4581C22.842 18.2452 23.0355 17.9839 23.3065 17.829" fill="#FFFEFF"/>
<path d="M20.0065 17.9935C20.0839 17.9065 20.1807 17.8387 20.2968 17.8C20.3549 17.8 20.4226 17.8 20.4807 17.8C20.6549 17.8484 20.7613 17.9839 20.8774 18.1C21.0903 18.3129 21.3032 18.5258 21.5162 18.7387C21.4387 18.7968 21.371 18.6129 21.2936 18.6806C21.2162 18.7484 21.1484 18.8258 21.0807 18.9032C21.042 18.9419 20.9839 18.9516 20.9645 19C20.9355 19.0774 20.8484 19.0968 20.7903 19.1548C20.7807 19.1839 20.8291 19.1839 20.8387 19.2032L20.8291 19.3C20.7129 19.1935 20.6065 19.0677 20.4807 18.9613C20.4323 18.9419 20.3452 18.9226 20.3065 18.9613C19.3581 19.8806 18.4387 20.829 17.5 21.7581C17.4613 21.8065 17.3936 21.8355 17.3936 21.9032C17.3742 21.9903 17.4032 22.0871 17.471 22.1548C17.6452 22.329 17.8194 22.5032 17.9936 22.6774C18.4097 23.0935 18.8258 23.5097 19.242 23.9258C19.5613 24.2452 19.8807 24.5548 20.1903 24.8742C20.2484 24.9516 20.3452 24.9903 20.442 24.9806C20.5968 24.9226 20.6936 24.7677 20.8194 24.6613C20.8387 24.6903 20.8194 24.729 20.8194 24.7677C20.771 24.7774 20.7129 24.8161 20.7323 24.8742C20.7613 24.9516 20.6355 24.8742 20.6065 24.9323C20.5968 24.971 20.6355 24.9903 20.6452 25.0194C20.5678 25.029 20.4613 24.971 20.4226 25.0581C20.3742 25.0774 20.3452 25.029 20.3065 25.0194C20.1807 25.0581 20.2194 24.9032 20.1323 24.8935C20.0452 24.8548 20.0258 24.729 19.9194 24.7097C19.842 24.6903 19.8613 24.5839 19.8032 24.5548C19.7549 24.5258 19.7065 24.4774 19.6774 24.4194C19.6581 24.3613 19.5807 24.4484 19.571 24.371C19.542 24.2548 19.4355 24.2065 19.3774 24.1194C19.3387 24.0806 19.2613 24.0903 19.242 24.0226C19.2323 23.9742 19.1936 23.9355 19.1452 23.9161C19.0968 23.8484 19.0484 23.7613 18.9516 23.7613C18.8839 23.771 18.8936 23.6839 18.8936 23.6355C18.7871 23.6065 18.7678 23.4903 18.6807 23.4419C18.642 23.4516 18.5839 23.4323 18.5549 23.4806C18.5549 23.5 18.5645 23.529 18.5452 23.5581C18.5258 23.5484 18.5065 23.5387 18.4871 23.529C18.371 23.6548 18.2355 23.7806 18.1194 23.9065C18.1097 24.0226 18.2452 24.0806 18.3129 24.1774C18.3226 24.2258 18.371 24.2065 18.4 24.2065C18.4291 24.2645 18.4581 24.3323 18.4968 24.3903C18.5839 24.4387 18.6323 24.5258 18.7097 24.5645C18.7678 24.671 18.8549 24.7677 18.9613 24.8355C18.9903 24.8548 19.0291 24.8839 19.0484 24.9226C19.0968 24.9419 19.1645 24.9226 19.1258 25.0194C19.1549 25.0581 19.1936 25.0968 19.2323 25.1355C19.3291 25.0968 19.3194 25.1742 19.3291 25.2129C19.3581 25.2613 19.4742 25.2032 19.4355 25.3194C19.4936 25.4065 19.6 25.4452 19.6484 25.5323C19.7355 25.5806 19.7645 25.6774 19.842 25.7258C19.9194 25.7742 19.9871 25.8419 20.0355 25.9194C20.0936 25.9581 20.142 26.0065 20.1903 26.0548C20.2871 26.0548 20.3936 26.0742 20.4903 26.0935C20.5678 26.0742 20.5871 25.9677 20.6549 25.9387C20.742 25.9097 20.771 25.8129 20.8484 25.7645C20.8871 25.7452 20.8678 25.6871 20.8968 25.6581L21.0032 25.6774C20.9355 25.7839 20.8291 25.8419 20.7516 25.9484C20.6742 26.0452 20.5678 26.1129 20.4516 26.1516H20.2774C20.1903 26.1226 20.1129 26.0742 20.0452 26.0258C19.9387 25.9 19.8032 25.8032 19.6968 25.6677C19.6871 25.6484 19.6678 25.6387 19.6484 25.629C19.5323 25.5032 19.4065 25.3774 19.2807 25.2613C19.1742 25.1355 19.0291 25.029 18.9226 24.9032C18.8065 24.7581 18.642 24.6613 18.5355 24.5065C18.5065 24.4677 18.4581 24.4484 18.4291 24.4097C18.2162 24.2065 18.0226 23.9645 17.7903 23.7806C17.6742 23.6355 17.5194 23.5097 17.3839 23.3742C17.2581 23.2097 17.0936 23.0935 16.9581 22.9484C16.9 22.9 16.8613 22.8323 16.8032 22.7935C16.7936 22.7742 16.7742 22.7452 16.7549 22.7355C16.6097 22.6194 16.5032 22.4548 16.3484 22.3387C16.2807 22.2806 16.2323 22.2032 16.2032 22.1161C16.2032 22.0484 16.2129 21.9806 16.2032 21.9129C16.2226 21.8355 16.2613 21.7677 16.3097 21.7C17.5678 20.4323 18.7871 19.2129 20.0065 17.9935Z" fill="#E3CCF4"/>
<path d="M21.2936 18.6806C21.371 18.6129 21.4484 18.7968 21.5161 18.7387C21.5645 18.7774 21.6032 18.8258 21.6516 18.8742V18.8935H21.6323C21.5936 18.8548 21.5548 18.8258 21.5161 18.7968C21.4387 18.7968 21.4097 18.8742 21.371 18.9226C21.3226 18.9903 21.2645 19.0484 21.1968 19.0871C21.1194 19.1742 21.0419 19.2613 20.9645 19.3387C20.9645 19.3677 20.9645 19.3968 20.9548 19.4161C20.9161 19.3774 20.8774 19.3387 20.8387 19.3L20.8484 19.2032C20.8387 19.1839 20.7903 19.1839 20.8 19.1548C20.8581 19.1065 20.9452 19.0774 20.9742 19C20.9936 18.9516 21.0516 18.9419 21.0903 18.9032C21.1484 18.8161 21.2161 18.7484 21.2936 18.6806Z" fill="#D9C4EB"/>
<path d="M21.3613 18.9226C21.4 18.8742 21.4387 18.7968 21.5065 18.7968C21.5452 18.8258 21.5936 18.8548 21.6226 18.8935C21.5162 18.9032 21.4774 19 21.4 19.0484C21.3323 19.1065 21.2742 19.1645 21.2162 19.2323C21.1484 19.3097 21.042 19.3677 21.0226 19.4839C20.9936 19.4645 20.9645 19.4355 20.9452 19.4161C20.9549 19.3871 20.9549 19.3581 20.9549 19.3387C21.042 19.2613 21.1097 19.1742 21.1871 19.0871C21.2645 19.0387 21.3226 18.9903 21.3613 18.9226Z" fill="#D0BCE0"/>
<path d="M21.6516 18.8742C21.7484 18.9516 21.8258 19.0677 21.9419 19.1355L21.9129 19.1645C21.8742 19.1355 21.8452 19.0968 21.8065 19.0677C21.7968 19.0581 21.7968 19.0581 21.7871 19.0484C21.7677 19.029 21.7484 19.0097 21.729 18.9903L21.6903 18.9516L21.6516 18.8935V18.8742Z" fill="#D7B0F8"/>
<path d="M21.4097 19.0484C21.4871 19 21.5258 18.9032 21.6323 18.8935H21.6516L21.6903 18.9516C21.6613 18.9613 21.6226 18.971 21.5936 18.9806C21.4484 19.1548 21.2839 19.2903 21.1387 19.4548C21.1194 19.4839 21.1097 19.5129 21.1 19.5419C21.0806 19.5226 21.0516 19.5032 21.0226 19.4935V19.4839C21.0419 19.3677 21.1484 19.3097 21.2161 19.2323C21.2742 19.1645 21.3419 19.0968 21.4097 19.0484Z" fill="#C7B5D7"/>
<path d="M20.2968 18.9516C20.3452 18.9129 20.4323 18.9323 20.471 18.9516C20.4129 18.9516 20.3548 18.9516 20.2968 18.9516Z" fill="#BB85E0"/>
<path d="M21.5936 18.9806C21.6226 18.971 21.6516 18.9613 21.6903 18.9516L21.729 18.9903C21.6806 19.0097 21.6323 19.0194 21.6129 19.0774C21.4774 19.2516 21.2936 19.3774 21.1484 19.5516C21.1484 19.571 21.1484 19.5903 21.1581 19.6097C21.1387 19.5903 21.1194 19.571 21.1097 19.5516C21.1194 19.5226 21.129 19.4935 21.1484 19.4645C21.2839 19.2903 21.4581 19.1452 21.5936 18.9806Z" fill="#BFAECD"/>
<path d="M21.6129 19.0677C21.6323 19.0194 21.6903 19 21.7291 18.9806C21.7484 19 21.7678 19.0194 21.7871 19.0387C21.5936 19.1161 21.4968 19.329 21.3226 19.4452C21.2742 19.5032 21.1871 19.5516 21.1968 19.6387L21.1581 19.6C21.1581 19.5806 21.1484 19.5613 21.1484 19.5419C21.2936 19.3677 21.4774 19.2419 21.6129 19.0677Z" fill="#B7A7C5"/>
<path d="M21.3226 19.4452C21.4968 19.329 21.5936 19.1258 21.7871 19.0387C21.7968 19.0484 21.7968 19.0484 21.8065 19.0581C21.7097 19.1645 21.6032 19.271 21.5065 19.3677C21.4194 19.4258 21.371 19.5323 21.2839 19.5903C21.2549 19.6097 21.2645 19.6484 21.2549 19.6871C21.2355 19.6677 21.2161 19.6484 21.1968 19.629C21.1871 19.5516 21.2742 19.5129 21.3226 19.4452Z" fill="#AF9FBC"/>
<path d="M21.5065 19.3774C21.6032 19.271 21.7097 19.1742 21.8065 19.0677C21.8452 19.0968 21.8742 19.1355 21.9129 19.1645C21.729 19.3774 21.5065 19.571 21.3129 19.7742C21.3032 19.7452 21.2839 19.7258 21.2645 19.6968C21.2742 19.6677 21.2645 19.6194 21.2936 19.6C21.371 19.5323 21.4194 19.4355 21.5065 19.3774Z" fill="#A79AB2"/>
<path d="M21.0323 19.4935C21.0613 19.5032 21.0806 19.5226 21.1097 19.5419C21.129 19.5613 21.1484 19.5806 21.1581 19.6L21.1968 19.6387C21.2161 19.6581 21.2355 19.6774 21.2548 19.6968C21.2742 19.7161 21.2935 19.7452 21.3032 19.7742C21.2839 19.7935 21.2645 19.8032 21.2452 19.8129C21.2452 19.7935 21.2548 19.7742 21.2548 19.7548C21.1871 19.6677 21.0613 19.6097 21.0323 19.4935Z" fill="#702EA5"/>
<path d="M16.2129 21.8839L16.2323 21.8645C16.2323 21.9323 16.2323 22 16.2323 22.0677C16.2323 22.0581 16.2226 22.0387 16.2129 22.029C16.2129 21.9903 16.2129 21.9129 16.2129 21.8839Z" fill="#B981E5"/>
<path d="M27.6323 21.8645C27.6516 21.9226 27.6516 21.9903 27.6323 22.0484C27.6323 21.9806 27.6323 21.9226 27.6323 21.8645Z" fill="#A063D0"/>
<path d="M16.2129 22.0194C16.1742 21.9806 16.1742 21.9226 16.2129 21.8839C16.2129 21.9129 16.2129 21.9903 16.2129 22.0194Z" fill="#8030C6"/>
<path d="M19.2903 21.8742L19.3 21.8839C19.3 21.9419 19.3 21.9903 19.3 22.0484C19.2903 21.9903 19.2903 21.9323 19.2903 21.8742Z" fill="#A569DC"/>
<path d="M18.5549 23.471C18.5742 23.4226 18.6323 23.4419 18.6807 23.4323C18.7678 23.4806 18.7871 23.6065 18.8936 23.6258C18.8839 23.6742 18.8839 23.7613 18.9516 23.7516C19.0484 23.7419 19.0968 23.8387 19.1452 23.9065C19.1936 23.9258 19.2323 23.9645 19.242 24.0129C19.2516 24.0806 19.3387 24.071 19.3774 24.1097C19.4452 24.1968 19.5516 24.2452 19.571 24.3613C19.5807 24.429 19.6581 24.3516 19.6774 24.4097C19.7065 24.4677 19.7452 24.5065 19.8032 24.5452C19.871 24.5742 19.842 24.6806 19.9194 24.7C20.0161 24.7194 20.0355 24.8452 20.1323 24.8839C20.2194 24.8935 20.1807 25.0484 20.3065 25.0097C20.3452 25.0194 20.3839 25.0677 20.4226 25.0484C20.4613 24.9613 20.5678 25.0194 20.6452 25.0097C20.6355 24.9806 20.5968 24.9516 20.6065 24.9226C20.6355 24.8645 20.7613 24.9419 20.7323 24.8645C20.7032 24.8065 20.771 24.7774 20.8194 24.7581C20.8097 24.8258 20.8871 24.8452 20.9258 24.8935C21.0032 25.0097 21.1097 25.1065 21.2258 25.1742C21.2645 25.2032 21.2742 25.2613 21.2936 25.3C21.3807 25.2903 21.4387 25.2129 21.5065 25.1645L21.5355 25.1839C21.3613 25.329 21.2161 25.5129 21.0516 25.6484L20.9452 25.629C20.9161 25.6581 20.9355 25.7161 20.8968 25.7355C20.8194 25.7839 20.7903 25.8806 20.7032 25.9097C20.6355 25.9484 20.6161 26.0452 20.5387 26.0645C20.442 26.0452 20.3355 26.0355 20.2387 26.0258C20.1903 25.9774 20.142 25.929 20.0839 25.8903C20.0355 25.8129 19.9678 25.7452 19.8903 25.6968C19.8129 25.6484 19.7742 25.5419 19.6968 25.5032C19.6484 25.4161 19.542 25.3677 19.4839 25.2903C19.5226 25.1742 19.4161 25.2323 19.3774 25.1839C19.3581 25.1355 19.3774 25.0581 19.2807 25.1065C19.242 25.0774 19.2032 25.0387 19.1645 24.9903C19.2032 24.8935 19.1258 24.9032 19.0871 24.8935C19.0581 24.8645 19.029 24.8355 19 24.8065C18.8936 24.7387 18.8065 24.6419 18.7484 24.5355C18.6613 24.4968 18.6129 24.4097 18.5355 24.3613C18.4968 24.3032 18.4678 24.2452 18.4387 24.1774C18.4 24.1774 18.3613 24.1968 18.3516 24.1484C18.2936 24.0613 18.1581 24.0032 18.1581 23.8774C18.2742 23.7516 18.4097 23.6258 18.5258 23.5C18.5452 23.5097 18.5645 23.5194 18.5839 23.529C18.5742 23.529 18.5645 23.5 18.5549 23.471Z" fill="#E3CFF2"/>
<path d="M21.2452 24.0903C21.2645 24.1097 21.2839 24.129 21.3032 24.1484L21.2742 24.1871C21.2452 24.2161 21.2161 24.2355 21.1968 24.2645L21.1774 24.2839C21.1581 24.3032 21.1387 24.3226 21.1194 24.3419L21.0807 24.3806C21.0613 24.4 21.0419 24.4194 21.0226 24.4387C21.0032 24.4581 20.9645 24.4871 20.9452 24.5161L20.9258 24.5258C20.9258 24.4871 20.9452 24.4581 20.9645 24.429C21.0613 24.3323 21.1581 24.2452 21.2452 24.1484C21.2452 24.1194 21.2452 24.1 21.2452 24.0903Z" fill="#68219F"/>
<path d="M21.3032 24.1484C21.5065 24.3516 21.7097 24.5548 21.9032 24.7484L21.8452 24.7968C21.7677 24.7484 21.7097 24.671 21.6419 24.6129C21.5161 24.5161 21.4484 24.3806 21.3226 24.2839L21.2742 24.1677C21.2742 24.1774 21.3032 24.1484 21.3032 24.1484Z" fill="#A195AB"/>
<path d="M21.1968 24.2645C21.2258 24.2355 21.2452 24.2065 21.2742 24.1871L21.3226 24.3032C21.4387 24.4 21.5161 24.5355 21.6419 24.6323C21.7097 24.6903 21.7677 24.7581 21.8452 24.8161L21.8065 24.8548C21.7387 24.8161 21.6903 24.7774 21.6419 24.7194C21.4774 24.5645 21.3613 24.3903 21.1968 24.2645Z" fill="#A999B5"/>
<path d="M21.1774 24.2742L21.1968 24.2548C21.3613 24.3903 21.4774 24.5645 21.6419 24.7C21.6903 24.7581 21.7387 24.8065 21.8065 24.8355L21.7484 24.8935C21.5839 24.729 21.4 24.5742 21.2452 24.3903C21.2161 24.3613 21.1871 24.3226 21.1774 24.2742Z" fill="#B0A2BC"/>
<path d="M21.1194 24.3323C21.1387 24.3129 21.1581 24.2935 21.1774 24.2742C21.1871 24.3226 21.2065 24.3613 21.2452 24.3903C21.4 24.5742 21.5839 24.7194 21.7484 24.8935L21.7194 24.9323L21.7097 24.9419C21.5065 24.7871 21.3419 24.5839 21.1581 24.4097C21.1387 24.3806 21.129 24.3613 21.1194 24.3323Z" fill="#B9A8C5"/>
<path d="M21.0807 24.371L21.1194 24.3323C21.129 24.3516 21.1387 24.3806 21.1581 24.4C21.3516 24.5742 21.5065 24.7871 21.7097 24.9323C21.6903 24.9516 21.671 24.9613 21.6516 24.9806C21.4678 24.8065 21.2839 24.6323 21.1097 24.4484C21.0807 24.4387 21.0903 24.4 21.0807 24.371Z" fill="#C1B0CE"/>
<path d="M21.0226 24.429C21.0419 24.4097 21.0613 24.3903 21.0807 24.371C21.0903 24.4 21.0807 24.429 21.1 24.4484C21.2742 24.6323 21.4581 24.8065 21.6419 24.9806C21.5936 25.0097 21.5355 24.9903 21.4871 25C21.3613 24.8065 21.1581 24.671 21.0032 24.4968C21.0226 24.4774 21.0323 24.4581 21.0226 24.429Z" fill="#C9B7D7"/>
<path d="M20.9452 24.5161C20.9742 24.4871 20.9936 24.4581 21.0226 24.4387C21.0323 24.4581 21.0129 24.4774 21.0129 24.5065C21.1677 24.6806 21.371 24.8161 21.4968 25.0097C21.5452 25.0097 21.6032 25.0194 21.6516 24.9903C21.671 24.971 21.6903 24.9613 21.7097 24.9419L21.7194 24.9323L21.729 24.971C21.6903 25.0097 21.6516 25.0484 21.6129 25.0871L21.6032 25.0484C21.5548 25.0774 21.5161 25.1161 21.4774 25.1452C21.371 25.0097 21.2258 24.9226 21.1194 24.7968C21.071 24.7 20.9355 24.6419 20.9452 24.5161Z" fill="#D0BDE0"/>
<path d="M20.9258 24.5258L20.9452 24.5161C20.9355 24.6419 21.071 24.7 21.1194 24.7968C21.2258 24.9323 21.371 25.0194 21.4774 25.1452C21.5258 25.1161 21.5645 25.0774 21.6129 25.0484L21.6226 25.0871C21.5936 25.1258 21.5645 25.1548 21.5258 25.1839L21.4968 25.1645C21.4291 25.2129 21.3807 25.2903 21.2839 25.3C21.2645 25.2613 21.2645 25.2032 21.2161 25.1742C21.0903 25.1065 20.9936 25.0097 20.9162 24.8935C20.8774 24.8452 20.8 24.8258 20.8097 24.7581C20.8097 24.7194 20.8387 24.6806 20.8097 24.6516C20.8484 24.6032 20.8871 24.5645 20.9258 24.5258Z" fill="#D9C6E9"/>
<path d="M21.8452 24.7968L21.9032 24.7484L21.9226 24.7677C21.8548 24.8355 21.7968 24.9032 21.729 24.971L21.7194 24.9323L21.7484 24.8935L21.8065 24.8355L21.8452 24.7968Z" fill="#CBA2E7"/>
<path d="M20.2968 26.1226H20.471C20.4226 26.1419 20.3548 26.1419 20.2968 26.1226Z" fill="#7B38B1"/>
<path d="M23.3645 26.1226C23.4323 26.1226 23.4903 26.1226 23.5581 26.1226L23.5387 26.1419H23.3742L23.3645 26.1226Z" fill="#7B41AC"/>
<path d="M23.3839 26.1419H23.5484C23.5 26.171 23.4419 26.171 23.3839 26.1419Z" fill="#580897"/>
</svg>
